<svg width="147" height="147" viewBox="0 0 147 147" fill="none" xmlns="http://www.w3.org/2000/svg">
<path d="M63.4819 4.71985C69.2252 -0.279164 77.7748 -0.279164 83.5181 4.71985C87.2293 7.95018 92.2705 9.19273 97.0579 8.05712C104.466 6.29974 112.037 10.2729 114.799 17.3684C116.584 21.9534 120.47 25.3964 125.237 26.6157C132.614 28.5025 137.47 35.5387 136.619 43.1051C136.069 47.9944 137.91 52.8491 141.564 56.1439C147.219 61.2427 148.249 69.73 143.979 76.0339C141.219 80.1075 140.594 85.2618 142.298 89.8773C144.936 97.0201 141.904 105.014 135.193 108.611C130.857 110.936 127.907 115.209 127.271 120.088C126.287 127.638 119.888 133.308 112.274 133.374C107.354 133.417 102.757 135.83 99.9264 139.855C95.5464 146.083 87.2452 148.129 80.4725 144.65C76.096 142.402 70.904 142.402 66.5275 144.65C59.7548 148.129 51.4536 146.083 47.0736 139.855C44.2432 135.83 39.6458 133.417 34.7258 133.374C27.112 133.308 20.7125 127.638 19.7286 120.088C19.0928 115.209 16.1433 110.936 11.8069 108.611C5.09613 105.014 2.06441 97.0201 4.70197 89.8773C6.40635 85.2618 5.78052 80.1075 3.02108 76.0339C-1.24921 69.73 -0.218668 61.2427 5.43617 56.1439C9.09029 52.8491 10.9314 47.9944 10.3812 43.1051C9.5296 35.5387 14.3863 28.5025 21.763 26.6157C26.5297 25.3964 30.416 21.9534 32.201 17.3684C34.9632 10.2729 42.5335 6.29974 49.9421 8.05712C54.7295 9.19273 59.7707 7.95018 63.4819 4.71985Z" fill="#FFAC60"/>
</svg>