<svg width="112" height="49" viewBox="0 0 112 49" fill="none" xmlns="http://www.w3.org/2000/svg">
<g clip-path="url(#clip0_2919_12137)">
<path d="M48.6481 24.8122H50.2301L46.1935 13.8499C46.3234 13.7835 46.4411 13.7019 46.5468 13.6084C46.7098 13.4574 46.8427 13.2732 46.9362 13.0559C47.0298 12.8385 47.0781 12.5909 47.0781 12.3222C47.0781 12.0535 47.0298 11.815 46.9362 11.6037C46.8427 11.3923 46.7098 11.2112 46.5438 11.0632C46.3777 10.9153 46.1784 10.8036 45.955 10.7251C45.7316 10.6466 45.4871 10.6104 45.2304 10.6104C44.9738 10.6104 44.7172 10.6496 44.4998 10.7281C44.2794 10.8066 44.0892 10.9213 43.9292 11.0693C43.7692 11.2202 43.6454 11.4014 43.5609 11.6127C43.4763 11.8241 43.4311 12.0686 43.4311 12.3403C43.4311 12.612 43.4733 12.8566 43.5609 13.0679C43.6454 13.2793 43.7692 13.4634 43.9292 13.6114C44.0409 13.717 44.1677 13.8046 44.3066 13.874L40.3033 24.767L40.2852 24.8183H41.8521L43.1322 21.2527H47.3891L48.6451 24.7911L48.6541 24.8153L48.6481 24.8122ZM44.373 12.3343C44.373 12.0686 44.4515 11.8573 44.6115 11.7093C44.7685 11.5584 44.9768 11.4829 45.2304 11.4829C45.4841 11.4829 45.6833 11.5584 45.8403 11.7093C45.9973 11.8573 46.0788 12.0686 46.0788 12.3343C46.0788 12.6 46.0003 12.8113 45.8403 12.9592C45.6833 13.1102 45.478 13.1857 45.2304 13.1857C44.9467 13.1857 44.7323 13.1102 44.5904 12.9623C44.4485 12.8113 44.376 12.603 44.376 12.3343H44.373ZM44.7595 16.5882C44.7897 16.4976 44.8289 16.3859 44.8742 16.2531C44.9195 16.1172 44.9648 15.9693 45.0131 15.8123C45.0614 15.6523 45.1067 15.4862 45.155 15.3111C45.1882 15.1904 45.2184 15.0696 45.2486 14.9549C45.2788 15.0696 45.312 15.1873 45.3452 15.3081C45.3935 15.4772 45.4388 15.6432 45.4871 15.8002C45.5354 15.9572 45.5807 16.1051 45.6259 16.241C45.6712 16.3769 45.7075 16.4916 45.7407 16.5882L46.894 19.873H43.6333L44.7625 16.5882H44.7595Z" fill="black"/>
<path d="M53.2558 12.4943H51.7402V24.8123H53.2558V12.4943Z" fill="black"/>
<path d="M59.6248 24.9692C59.8935 24.9692 60.1471 24.9572 60.3765 24.9391C60.606 24.9179 60.8324 24.8817 61.0468 24.8364C61.2611 24.7881 61.4725 24.7277 61.6747 24.6553C61.877 24.5828 62.0884 24.4922 62.2997 24.3926L62.3208 24.3835V23.0249L62.2665 23.0491C62.0612 23.1427 61.8589 23.2272 61.6596 23.3027C61.4604 23.3782 61.2551 23.4416 61.0437 23.4899C60.8324 23.5382 60.609 23.5774 60.3826 23.6046C60.1561 23.6318 59.9086 23.6439 59.6399 23.6439C58.8579 23.6439 58.2631 23.4084 57.8707 22.9404C57.4812 22.4785 57.2668 21.7479 57.2367 20.7667H62.7073V19.8398C62.7073 19.2601 62.6288 18.7257 62.4718 18.2517C62.3148 17.7747 62.0884 17.3581 61.7955 17.02C61.5026 16.6788 61.1434 16.4101 60.7237 16.2229C60.3041 16.0357 59.827 15.9391 59.3017 15.9391C58.7764 15.9391 58.2692 16.0448 57.8284 16.2501C57.3846 16.4554 56.9981 16.7603 56.6811 17.1528C56.3641 17.5453 56.1135 18.0314 55.9384 18.5929C55.7633 19.1545 55.6758 19.8036 55.6758 20.5161C55.6758 21.2286 55.7724 21.8656 55.9626 22.4151C56.1528 22.9676 56.4245 23.4386 56.7717 23.8129C57.1189 24.1873 57.5386 24.4771 58.0216 24.6734C58.5047 24.8696 59.0421 24.9662 59.6248 24.9662V24.9692ZM59.2685 17.2041C59.5885 17.2041 59.8633 17.2615 60.0897 17.3732C60.3161 17.4849 60.5033 17.6449 60.6482 17.8502C60.7962 18.0555 60.9049 18.3061 60.9743 18.5959C61.0407 18.8767 61.077 19.1907 61.08 19.5288H57.2699C57.3302 18.7801 57.5325 18.2004 57.8707 17.8049C58.2118 17.4064 58.6828 17.2041 59.2685 17.2041Z" fill="black"/>
<path d="M69.6572 20.7999C69.4458 20.6006 69.1862 20.4225 68.8873 20.2625C68.5884 20.1055 68.2473 19.9455 67.8669 19.7885C67.5015 19.6375 67.1906 19.4986 66.943 19.3779C66.6985 19.2571 66.5022 19.1364 66.3573 19.0156C66.2154 18.8978 66.1128 18.7741 66.0554 18.6442C65.998 18.5144 65.9678 18.3574 65.9678 18.1793C65.9678 17.8653 66.0886 17.6298 66.3392 17.4577C66.5898 17.2887 66.9853 17.2011 67.5106 17.2011C67.8789 17.2011 68.2473 17.2585 68.6035 17.3672C68.9598 17.4789 69.313 17.6117 69.6542 17.7627L69.6904 17.7778L70.2187 16.552L70.1855 16.5369C69.8051 16.3588 69.3975 16.2108 68.9749 16.1022C68.5492 15.9904 68.0752 15.9361 67.5619 15.9361C67.1091 15.9361 66.6894 15.9874 66.3181 16.0871C65.9467 16.1867 65.6237 16.3376 65.358 16.5339C65.0893 16.7301 64.881 16.9777 64.733 17.2675C64.5851 17.5574 64.5126 17.8925 64.5126 18.2638C64.5126 18.6352 64.57 18.9311 64.6847 19.1877C64.7994 19.4443 64.9655 19.6768 65.1799 19.873C65.3912 20.0693 65.6539 20.2474 65.9588 20.4074C66.2607 20.5644 66.6049 20.7274 66.9853 20.8874C67.3596 21.0474 67.6736 21.1954 67.9152 21.3252C68.1537 21.455 68.3439 21.5818 68.4797 21.7086C68.6156 21.8324 68.7092 21.9592 68.7575 22.083C68.8088 22.2098 68.833 22.3547 68.833 22.5087C68.833 22.6898 68.7998 22.8589 68.7333 23.0099C68.6669 23.1578 68.5613 23.2846 68.4163 23.3872C68.2714 23.4929 68.0782 23.5714 67.8457 23.6288C67.6102 23.6861 67.3204 23.7133 66.9823 23.7133C66.7528 23.7133 66.5203 23.6952 66.2879 23.6559C66.0554 23.6167 65.8259 23.5654 65.6086 23.502C65.3882 23.4386 65.1768 23.3661 64.9806 23.2876C64.7813 23.2061 64.6002 23.1246 64.4372 23.0401L64.3828 23.0129V24.4017L64.4009 24.4137C64.7149 24.5919 65.0832 24.7308 65.4938 24.8243C65.9044 24.9149 66.4056 24.9632 66.9792 24.9632C67.4865 24.9632 67.9484 24.9089 68.356 24.8062C68.7635 24.7006 69.1198 24.5375 69.4096 24.3232C69.6995 24.1088 69.9259 23.8371 70.0799 23.5171C70.2338 23.197 70.3123 22.8227 70.3123 22.4C70.3123 22.0437 70.255 21.7358 70.1433 21.4792C70.0316 21.2226 69.8655 20.9931 69.6511 20.7938L69.6572 20.7999Z" fill="black"/>
<path d="M73.2468 24.2084C73.4913 24.4681 73.8023 24.6613 74.1706 24.7851C74.5359 24.9058 74.9647 24.9692 75.4477 24.9692C75.7013 24.9692 75.9549 24.9421 76.1995 24.8907C76.444 24.8364 76.6795 24.7549 76.8969 24.6462C77.1143 24.5375 77.3196 24.3986 77.5007 24.2326C77.6788 24.0696 77.8358 23.8763 77.9687 23.6559H77.9958L78.2102 24.8123H79.442V16.0991H77.9264V20.6217C77.9264 21.1199 77.8871 21.5667 77.8117 21.9532C77.7362 22.3336 77.6094 22.6596 77.4373 22.9193C77.2652 23.1759 77.0358 23.3752 76.752 23.508C76.4682 23.6408 76.1119 23.7103 75.6923 23.7103C75.1216 23.7103 74.696 23.5442 74.4242 23.2121C74.1525 22.88 74.0136 22.3728 74.0136 21.7026V16.1021H72.498V21.7811C72.498 22.3336 72.5614 22.8166 72.6852 23.2151C72.809 23.6167 72.9962 23.9518 73.2438 24.2145L73.2468 24.2084Z" fill="black"/>
<path d="M87.763 19.2118V24.8123H89.2786V19.1333C89.2786 18.0283 89.028 17.2102 88.5359 16.7029C88.0438 16.1957 87.3011 15.9391 86.332 15.9391C86.0784 15.9391 85.8248 15.9663 85.5802 16.0176C85.3357 16.072 85.1002 16.1535 84.8828 16.2652C84.6654 16.3769 84.4601 16.5158 84.279 16.6848C84.1009 16.8479 83.9439 17.0411 83.8141 17.2615H83.7869L83.5816 16.0961H82.3438V24.8092H83.8593V20.2957C83.8593 19.7975 83.8986 19.3477 83.9741 18.9643C84.0495 18.5838 84.1763 18.2578 84.3484 17.9951C84.5205 17.7355 84.75 17.5362 85.0338 17.4034C85.3176 17.2705 85.6738 17.2011 86.0935 17.2011C86.6701 17.2011 87.0958 17.3671 87.3645 17.6992C87.6332 18.0314 87.7721 18.5386 87.7721 19.2088L87.763 19.2118Z" fill="black"/>
<path d="M97.0565 24.1511C97.2075 23.9941 97.3434 23.828 97.4581 23.6559H97.4702L97.6845 24.8123H98.9163V12.4943H97.4007V15.9633C97.4007 16.0478 97.4068 16.1625 97.4158 16.3105C97.4279 16.4554 97.4369 16.5943 97.446 16.7301C97.4611 16.8811 97.4762 17.0381 97.4883 17.2011H97.4551C97.3403 17.0381 97.2045 16.8811 97.0505 16.7331C96.8905 16.5792 96.7063 16.4433 96.501 16.3256C96.2957 16.2078 96.0633 16.1142 95.8097 16.0478C95.553 15.9784 95.2662 15.9452 94.9552 15.9452C94.4631 15.9452 94.0042 16.0418 93.5936 16.235C93.183 16.4282 92.8298 16.7181 92.5369 17.0985C92.2471 17.4789 92.0177 17.9529 91.8576 18.5144C91.7006 19.073 91.6191 19.7311 91.6191 20.4708C91.6191 21.2105 91.7006 21.8596 91.8576 22.4151C92.0177 22.9736 92.2441 23.4476 92.5369 23.825C92.8298 24.2024 93.186 24.4922 93.5936 24.6824C94.0012 24.8726 94.4601 24.9693 94.9522 24.9693C95.2692 24.9693 95.5591 24.933 95.8157 24.8666C96.0693 24.7972 96.3048 24.7006 96.5101 24.5798C96.7154 24.459 96.8995 24.3141 97.0565 24.1541V24.1511ZM97.3977 20.4708V20.7938C97.3856 21.2829 97.3403 21.7147 97.2588 22.08C97.1773 22.4423 97.0535 22.7502 96.8845 22.9917C96.7184 23.2303 96.498 23.4114 96.2293 23.5291C95.9576 23.6469 95.6225 23.7073 95.227 23.7073C94.5235 23.7073 93.9982 23.4416 93.6751 22.9193C93.3461 22.3909 93.18 21.5728 93.18 20.4889C93.18 19.4051 93.3461 18.608 93.6782 18.0465C94.0042 17.4909 94.5205 17.2071 95.2149 17.2071C95.6345 17.2071 95.9878 17.2796 96.2655 17.4185C96.5433 17.5574 96.7667 17.7687 96.9358 18.0404C97.1048 18.3152 97.2256 18.6593 97.295 19.0669C97.3645 19.4745 97.4007 19.9455 97.4007 20.4738L97.3977 20.4708Z" fill="black"/>
<path d="M46.4893 33.1057H44.7231L42.3954 35.9588L41.3689 37.2479L41.4897 35.1557V29.5009H39.9922V41.8188H41.4897V38.4797L42.3048 37.8699L44.9375 41.8038L44.9496 41.8188H46.6946L43.286 36.8826L46.4893 33.1057Z" fill="black"/>
<path d="M54.1005 34.1201C53.7623 33.7367 53.3578 33.4438 52.8958 33.2446C52.4339 33.0453 51.9237 32.9457 51.3802 32.9457C50.7915 32.9457 50.2541 33.0453 49.7801 33.2446C49.3061 33.4438 48.8985 33.7367 48.5695 34.1201C48.2404 34.5036 47.9838 34.9775 47.8087 35.5331C47.6305 36.0886 47.543 36.7316 47.543 37.4442C47.543 38.1567 47.6366 38.8118 47.8268 39.3734C48.0139 39.9349 48.2796 40.4119 48.6178 40.7954C48.9559 41.1788 49.3605 41.4747 49.8194 41.6739C50.2813 41.8732 50.7915 41.9758 51.338 41.9758C51.9267 41.9758 52.4611 41.8732 52.9351 41.6739C53.4061 41.4716 53.8136 41.1788 54.1457 40.7954C54.4778 40.4119 54.7345 39.9349 54.9126 39.3734C55.0907 38.8148 55.1783 38.1657 55.1783 37.4472C55.1783 36.7286 55.0847 36.0886 54.8945 35.5361C54.7073 34.9806 54.4416 34.5035 54.1035 34.1231L54.1005 34.1201ZM51.3652 40.7138C50.5711 40.7138 49.9884 40.4391 49.6382 39.9017C49.282 39.3583 49.1038 38.531 49.1038 37.4472C49.1038 36.3633 49.282 35.5421 49.6322 35.0077C49.9794 34.4794 50.556 34.2107 51.3531 34.2107C52.1501 34.2107 52.7298 34.4794 53.08 35.0077C53.4363 35.5421 53.6144 36.3633 53.6144 37.4442C53.6144 38.525 53.4363 39.3522 53.086 39.8987C52.7388 40.4391 52.1622 40.7108 51.3652 40.7108V40.7138Z" fill="black"/>
<path d="M66.4586 32.9487C66.1929 32.9487 65.9302 32.9789 65.6766 33.0363C65.423 33.0936 65.1755 33.1842 64.946 33.3019C64.7166 33.4197 64.4992 33.5737 64.306 33.7518C64.1158 33.9269 63.9527 34.1382 63.8169 34.3798H63.8018C63.5995 33.8937 63.2855 33.5284 62.8659 33.2989C62.4432 33.0665 61.9058 32.9487 61.2688 32.9487C61.0242 32.9487 60.7827 32.9759 60.5442 33.0272C60.3087 33.0816 60.0792 33.1631 59.8709 33.2748C59.6596 33.3865 59.4663 33.5254 59.2882 33.6944C59.1192 33.8575 58.9682 34.0507 58.8414 34.2711H58.8172L58.6119 33.1057H57.3711V41.8188H58.8867V37.3053C58.8867 36.8071 58.9229 36.3573 58.9924 35.9739C59.0618 35.5934 59.1795 35.2674 59.3426 35.0047C59.5026 34.7451 59.72 34.5458 59.9887 34.413C60.2574 34.2801 60.5925 34.2107 60.991 34.2107C61.5284 34.2107 61.9299 34.3767 62.1835 34.7058C62.4371 35.0379 62.567 35.5482 62.567 36.2184V41.8188H64.0886V37.0124C64.0886 36.5565 64.1278 36.1459 64.2063 35.7987C64.2848 35.4515 64.4086 35.1557 64.5747 34.9232C64.7407 34.6907 64.9581 34.5126 65.2208 34.3918C65.4834 34.2711 65.8065 34.2107 66.1869 34.2107C66.7243 34.2107 67.1288 34.3767 67.3824 34.7058C67.6391 35.0379 67.7689 35.5482 67.7689 36.2184V41.8188H69.2845V36.1399C69.2845 35.0349 69.046 34.2167 68.575 33.7095C68.104 33.2023 67.3915 32.9457 66.4646 32.9457L66.4586 32.9487Z" fill="black"/>
<path d="M80.9653 32.9487C80.6997 32.9487 80.437 32.9789 80.1834 33.0363C79.9298 33.0936 79.6822 33.1842 79.4528 33.3019C79.2233 33.4197 79.0059 33.5737 78.8127 33.7518C78.6225 33.9269 78.4595 34.1382 78.3236 34.3798H78.3085C78.1063 33.8937 77.7923 33.5284 77.3726 33.2989C76.9499 33.0665 76.4125 32.9487 75.7755 32.9487C75.531 32.9487 75.2894 32.9759 75.0509 33.0272C74.8154 33.0816 74.586 33.1631 74.3777 33.2748C74.1663 33.3865 73.9731 33.5284 73.795 33.6944C73.6259 33.8575 73.4749 34.0507 73.3481 34.2711H73.324L73.1187 33.1057H71.8809V41.8188H73.3965V37.3053C73.3965 36.8071 73.4327 36.3603 73.5021 35.9739C73.5716 35.5934 73.6893 35.2644 73.8523 35.0047C74.0154 34.7451 74.2297 34.5458 74.4984 34.413C74.7641 34.2801 75.1022 34.2107 75.5008 34.2107C76.0382 34.2107 76.4397 34.3767 76.6933 34.7058C76.9469 35.0379 77.0767 35.5482 77.0767 36.2184V41.8188H78.5984V37.0124C78.5984 36.5565 78.6376 36.1459 78.7161 35.7987C78.7946 35.4515 78.9184 35.1557 79.0844 34.9232C79.2505 34.6907 79.4679 34.5126 79.7305 34.3918C79.9932 34.2711 80.3162 34.2107 80.6966 34.2107C81.234 34.2107 81.6386 34.3767 81.8922 34.7058C82.1488 35.0379 82.2787 35.5482 82.2787 36.2184V41.8188H83.7942V36.1399C83.7942 35.0349 83.5557 34.2167 83.0847 33.7095C82.6138 33.2023 81.9013 32.9457 80.9744 32.9457L80.9653 32.9487Z" fill="black"/>
<path d="M91.7272 37.6283C91.7272 38.1265 91.6879 38.5733 91.6124 38.9598C91.537 39.3402 91.4102 39.6662 91.2381 39.9259C91.066 40.1825 90.8365 40.3818 90.5527 40.5146C90.2689 40.6474 89.9127 40.7169 89.493 40.7169C88.9224 40.7169 88.4967 40.5508 88.225 40.2187C87.9533 39.8866 87.8144 39.3794 87.8144 38.7092V33.1087H86.2988V38.7877C86.2988 39.3402 86.3622 39.8232 86.486 40.2218C86.6098 40.6233 86.797 40.9584 87.0445 41.2211C87.2891 41.4807 87.6001 41.6739 87.9684 41.7977C88.3337 41.9185 88.7624 41.9819 89.2455 41.9819C89.4991 41.9819 89.7497 41.9547 89.9972 41.9034C90.2418 41.8521 90.4773 41.7675 90.6946 41.6619C90.912 41.5532 91.1173 41.4143 91.2985 41.2452C91.4766 41.0822 91.6336 40.889 91.7664 40.6686H91.7936L92.0079 41.8249H93.2397V33.1118H91.7242V37.6344L91.7272 37.6283Z" fill="black"/>
<path d="M99.9062 32.9487C99.6526 32.9487 99.399 32.9759 99.1544 33.0272C98.9099 33.0816 98.6744 33.1631 98.457 33.2748C98.2397 33.3865 98.0344 33.5254 97.8532 33.6944C97.6751 33.8575 97.5181 34.0507 97.3883 34.2711H97.3611L97.1558 33.1057H95.918V41.8188H97.4336V37.3053C97.4336 36.8041 97.4728 36.3573 97.5483 35.9739C97.6238 35.5934 97.7506 35.2674 97.9227 35.0047C98.0947 34.7451 98.3242 34.5458 98.608 34.413C98.8918 34.2801 99.248 34.2107 99.6677 34.2107C100.244 34.2107 100.67 34.3767 100.939 34.7088C101.207 35.041 101.346 35.5512 101.346 36.2184V41.8188H102.862V36.1399C102.862 35.0349 102.611 34.2167 102.119 33.7095C101.627 33.2023 100.884 32.9457 99.9153 32.9457L99.9062 32.9487Z" fill="black"/>
<path d="M112 36.8494C112 36.2728 111.922 35.7384 111.765 35.2614C111.608 34.7844 111.381 34.3707 111.088 34.0296C110.796 33.6884 110.436 33.4197 110.017 33.2325C109.597 33.0454 109.117 32.9487 108.595 32.9487C108.072 32.9487 107.562 33.0544 107.121 33.2597C106.681 33.465 106.291 33.7699 105.974 34.1624C105.657 34.5549 105.407 35.041 105.231 35.6025C105.056 36.1641 104.969 36.8132 104.969 37.5257C104.969 38.2382 105.065 38.8752 105.256 39.4277C105.446 39.9802 105.721 40.4512 106.065 40.8256C106.412 41.2 106.832 41.4898 107.315 41.686C107.798 41.8823 108.335 41.9789 108.918 41.9789C109.186 41.9789 109.437 41.9668 109.669 41.9457C109.899 41.9245 110.122 41.8913 110.337 41.843C110.551 41.7947 110.762 41.7343 110.965 41.6619C111.17 41.5894 111.378 41.4988 111.59 41.4022L111.611 41.3932V40.0346L111.556 40.0587C111.354 40.1523 111.149 40.2369 110.95 40.3123C110.75 40.3878 110.545 40.4512 110.334 40.4995C110.125 40.5478 109.902 40.5871 109.673 40.6142C109.446 40.6414 109.195 40.6535 108.93 40.6535C108.151 40.6535 107.553 40.418 107.161 39.95C106.771 39.4881 106.557 38.7575 106.527 37.7763H111.997V36.8494H112ZM108.561 34.2107C108.882 34.2107 109.156 34.2681 109.383 34.3798C109.609 34.4915 109.796 34.6515 109.941 34.8568C110.089 35.0621 110.198 35.3127 110.267 35.6025C110.334 35.8833 110.37 36.1973 110.373 36.5354H106.563C106.623 35.7867 106.825 35.204 107.164 34.8115C107.505 34.413 107.976 34.2107 108.561 34.2107Z" fill="black"/>
<path d="M25.0917 30.5093L24.7053 29.0632C24.6237 28.7582 24.3913 28.5348 24.1105 28.5167C24.0984 28.5167 24.0863 28.5167 24.0743 28.5167C24.0622 28.5167 24.0501 28.5167 24.038 28.5167C23.7603 28.5348 23.5248 28.7582 23.4433 29.0571V29.0662L22.9844 30.7659L24.0743 30.5063H25.0917V30.5093Z" fill="black"/>
<path d="M10.2857 32.4385L9.8993 30.9924C9.81779 30.6874 9.58532 30.464 9.30454 30.4459C9.29246 30.4459 9.28039 30.4459 9.26831 30.4459C9.25623 30.4459 9.24416 30.4459 9.23208 30.4459C8.95432 30.464 8.71883 30.6874 8.63732 30.9863V30.9954L8.32031 32.1698L9.26831 32.4385H10.2857Z" fill="black"/>
<path d="M3.56013 10.9425H31.8854L33.6757 12.1079C32.9783 12.7902 32.0273 14.0643 32.0273 15.9301V35.0833C32.0273 38.0722 31.5291 39.8474 30.3607 41.0128C28.984 42.3895 27.3084 43.2801 25.3822 43.6545C24.2983 43.8658 23.3956 43.9624 22.5986 44.05C21.6747 44.1496 20.8777 44.2372 20.0173 44.4576C18.8942 44.7444 18.1696 45.4992 17.7258 46.1754C17.282 45.4992 16.5543 44.7474 15.4312 44.4576C14.5648 44.2342 13.7315 44.1466 12.8409 44.05C12.0438 43.9624 11.1381 43.8658 10.0663 43.6575C8.14011 43.2801 6.46451 42.3925 5.0878 41.0158C3.92242 39.8504 3.42427 38.0752 3.42427 35.0863V15.9331C3.42427 14.0824 2.4642 12.7993 1.7698 12.1139L3.56617 10.9486M3.34276 10.1938L3.30955 10.2149L0.474609 12.0445L0.652736 12.1592C0.67387 12.1713 2.66044 13.4635 2.66044 15.9271V35.0802C2.66044 38.2895 3.22501 40.2218 4.54738 41.5441C6.03278 43.0295 7.8382 43.9896 9.91534 44.3942C11.0234 44.6115 11.9502 44.7112 12.7654 44.7987C13.659 44.8953 14.4349 44.9799 15.241 45.1852C17.0223 45.6441 17.5869 47.6035 17.5929 47.6216L17.7227 48.0926L17.8526 47.6216C17.8586 47.6005 18.4202 45.6411 20.2014 45.1852C21.0105 44.9769 21.7804 44.8953 22.6771 44.7987C23.4922 44.7112 24.4161 44.6115 25.5241 44.3942C27.6012 43.9896 29.4067 43.0295 30.8921 41.5441C32.2144 40.2218 32.779 38.2895 32.779 35.0802V15.9271C32.779 13.4635 34.7656 12.1713 34.7867 12.1592L34.9648 12.0445L32.1057 10.1847H3.33672L3.34276 10.1938Z" fill="black"/>
<path d="M3.56013 10.9425H31.8854L33.6757 12.1079C32.9783 12.7902 32.0273 14.0643 32.0273 15.9301V35.0833C32.0273 38.0722 31.5291 39.8474 30.3607 41.0128C28.984 42.3895 27.3084 43.2801 25.3822 43.6545C24.2983 43.8658 23.3956 43.9624 22.5986 44.05C21.6747 44.1496 20.8777 44.2372 20.0173 44.4576C18.8942 44.7444 18.1696 45.4992 17.7258 46.1754C17.282 45.4992 16.5543 44.7474 15.4312 44.4576C14.5648 44.2342 13.7315 44.1466 12.8409 44.05C12.0438 43.9624 11.1381 43.8658 10.0663 43.6575C8.14011 43.2801 6.46451 42.3925 5.0878 41.0158C3.92242 39.8504 3.42427 38.0752 3.42427 35.0863V15.9331C3.42427 14.0824 2.4642 12.7993 1.7698 12.1139L3.56617 10.9486M3.34276 10.1938L3.30955 10.2149L0.474609 12.0445L0.652736 12.1592C0.67387 12.1713 2.66044 13.4635 2.66044 15.9271V35.0802C2.66044 38.2895 3.22501 40.2218 4.54738 41.5441C6.03278 43.0295 7.8382 43.9896 9.91534 44.3942C11.0234 44.6115 11.9502 44.7112 12.7654 44.7987C13.659 44.8953 14.4349 44.9799 15.241 45.1852C17.0223 45.6441 17.5869 47.6035 17.5929 47.6216L17.7227 48.0926L17.8526 47.6216C17.8586 47.6005 18.4202 45.6411 20.2014 45.1852C21.0105 44.9769 21.7804 44.8953 22.6771 44.7987C23.4922 44.7112 24.4161 44.6115 25.5241 44.3942C27.6012 43.9896 29.4067 43.0295 30.8921 41.5441C32.2144 40.2218 32.779 38.2895 32.779 35.0802V15.9271C32.779 13.4635 34.7656 12.1713 34.7867 12.1592L34.9648 12.0445L32.1057 10.1847H3.33672L3.34276 10.1938Z" stroke="black" stroke-width="0.060382" stroke-miterlimit="10"/>
<path d="M20.1749 30.4368C19.3869 30.7297 18.4691 30.2104 18.1249 29.2805C18.0887 29.1779 18.14 29.0662 18.2396 29.0269C18.3393 28.9877 18.454 29.042 18.4932 29.1416C18.7619 29.8662 19.3295 29.9417 19.9122 29.7273C20.4949 29.51 20.8783 29.0843 20.6096 28.3567C20.5734 28.254 20.6247 28.1423 20.7243 28.1031C20.824 28.0638 20.9387 28.1182 20.9779 28.2178C21.3221 29.1477 20.9629 30.141 20.1749 30.4308V30.4368Z" fill="black"/>
<path d="M19.7572 29.7486C20.0557 29.7486 20.2976 29.5066 20.2976 29.2082C20.2976 28.9097 20.0557 28.6677 19.7572 28.6677C19.4588 28.6677 19.2168 28.9097 19.2168 29.2082C19.2168 29.5066 19.4588 29.7486 19.7572 29.7486Z" fill="black"/>
<path d="M18.9819 29.0541C18.852 28.7039 19.0302 28.3175 19.3804 28.1877C19.7306 28.0578 20.1171 28.236 20.2469 28.5862L18.9819 29.0541Z" fill="black"/>
<path d="M20.3428 28.707L18.9873 29.2082C18.8907 29.2444 18.782 29.1931 18.7488 29.0995C18.7155 29.0059 18.7639 28.8942 18.8574 28.861L20.213 28.3598C20.3096 28.3236 20.4183 28.3749 20.4515 28.4685C20.4878 28.5651 20.4364 28.6738 20.3428 28.707Z" fill="black"/>
<path d="M9.25331 30.4519C9.55178 30.4519 9.79373 30.21 9.79373 29.9115C9.79373 29.613 9.55178 29.3711 9.25331 29.3711C8.95484 29.3711 8.71289 29.613 8.71289 29.9115C8.71289 30.21 8.95484 30.4519 9.25331 30.4519Z" fill="black"/>
<path d="M11.0949 32.5955L10.627 32.0038C14.0929 29.2715 15.8892 26.4305 15.9738 23.5503C16.0402 21.2528 14.1321 19.8911 13.2143 19.236C13.0573 19.1243 12.9335 19.0337 12.849 18.9643L12.3056 18.5084L20.439 16.1595L20.596 16.2954C20.7138 16.398 20.9221 16.5369 21.1908 16.7211C23.271 18.137 28.7899 21.8988 27.1596 29.7032L26.4199 29.5493C27.9475 22.237 22.7305 18.6835 20.7651 17.346C20.5628 17.2102 20.3938 17.0924 20.2639 16.9958L13.9359 18.8224C14.9745 19.5832 16.801 21.1139 16.7286 23.5714C16.638 26.6841 14.742 29.7213 11.0919 32.5955H11.0949Z" fill="black"/>
<path d="M12.7589 39.2164C11.4335 39.2164 10.7542 38.9809 10.1534 38.7726C9.50736 38.5492 8.90353 38.3378 7.74722 38.3378C6.5909 38.3378 5.96293 38.5401 5.34703 38.7545C4.83378 38.9326 4.2511 39.1349 3.30008 39.1922L3.25781 38.4375C4.10316 38.3861 4.61037 38.211 5.10248 38.042C5.7214 37.8276 6.42485 37.5831 7.75024 37.5831C9.07562 37.5831 9.73077 37.8246 10.3436 38.0359C10.9746 38.2563 11.5634 38.4616 12.7619 38.4616C13.9605 38.4616 14.5251 38.2533 15.1048 38.051C15.7539 37.8276 16.4573 37.5831 17.7857 37.5831C19.0447 37.5831 19.7149 37.8155 20.3067 38.0208L20.3973 38.054C21.0222 38.2714 21.6351 38.4526 22.7974 38.4526C23.9598 38.4526 24.5123 38.2473 25.0829 38.048C25.8528 37.7823 26.523 37.5861 27.8031 37.5861C29.0832 37.5861 29.7021 37.8155 30.2818 38.0178L30.5475 38.1114C31.0003 38.2684 31.426 38.4193 32.2955 38.4375L32.2804 39.1922C31.2902 39.1711 30.786 38.993 30.2999 38.8239L30.0342 38.7303C29.4606 38.528 28.9172 38.3378 27.8061 38.3378C26.6951 38.3378 26.0581 38.5099 25.415 38.7303C24.7297 38.9688 24.0504 39.2043 22.7974 39.2043C21.5445 39.2043 20.8169 38.999 20.1497 38.7665L20.0561 38.7333C19.4674 38.5311 18.9149 38.3378 17.7827 38.3378C16.5811 38.3378 15.9954 38.5401 15.3795 38.7545C14.7395 38.9749 14.0481 39.2134 12.7589 39.2134V39.2164Z" fill="black"/>
<path d="M22.5951 37.1483C21.3059 37.1483 20.6296 36.9068 20.0318 36.6955C19.428 36.4841 18.8604 36.2818 17.6981 36.2818C16.5357 36.2818 15.9591 36.4841 15.3552 36.6985C14.7544 36.9098 14.0751 37.1513 12.795 37.1513C11.5149 37.1513 10.8326 36.9098 10.2318 36.6985C9.63103 36.4841 9.06042 36.2818 7.89505 36.2818C6.72967 36.2818 6.15604 36.4841 5.55524 36.6985C4.95444 36.9098 4.27514 37.1513 2.99504 37.1513L2.93164 36.774L2.93768 36.3966H2.94674C4.14834 36.3966 4.70989 36.1973 5.30164 35.989C5.90848 35.7746 6.59381 35.5301 7.89505 35.5301C9.19628 35.5301 9.8786 35.7716 10.4854 35.989C11.0802 36.2003 11.6418 36.3996 12.795 36.3996C13.9483 36.3996 14.5069 36.2003 15.1016 35.989C15.7085 35.7746 16.3968 35.5301 17.6981 35.5301C18.9993 35.5301 19.6756 35.7716 20.2794 35.986C20.8772 36.1973 21.4357 36.3966 22.5951 36.3966C23.7544 36.3966 24.3069 36.1973 24.8986 35.986C25.5055 35.7716 26.1908 35.5271 27.486 35.5271C28.7812 35.5271 29.4756 35.7686 30.0824 35.986C30.6772 36.1973 31.2387 36.3966 32.3981 36.3966H32.5158L32.5219 37.1513H32.4011C31.1119 37.1513 30.4326 36.9098 29.8318 36.6985C29.228 36.4841 28.6604 36.2818 27.489 36.2818C26.3176 36.2818 25.7561 36.4841 25.1553 36.6985C24.5575 36.9098 23.8812 37.1513 22.5981 37.1513L22.5951 37.1483Z" fill="black"/>
<path d="M11.7325 19.4413C11.5695 19.4413 11.4185 19.3326 11.3702 19.1696C11.3129 18.9703 11.4276 18.759 11.6269 18.7016L21.3091 15.8878C21.5144 15.8304 21.7197 15.9452 21.7771 16.1444C21.8345 16.3437 21.7197 16.555 21.5205 16.6124L11.8382 19.4262C11.802 19.4352 11.7688 19.4413 11.7325 19.4413Z" fill="black"/>
<path d="M17.1107 33.2627C16.9114 33.2627 16.7453 33.1058 16.7333 32.9065L15.737 14.6138C15.7249 14.4054 15.8849 14.2273 16.0932 14.2152C16.3317 14.2032 16.4797 14.3632 16.4917 14.5715L17.488 32.8642C17.5001 33.0725 17.3401 33.2507 17.1318 33.2627C17.1258 33.2627 17.1167 33.2627 17.1107 33.2627Z" fill="black"/>
<path d="M14.4863 33.4529C13.499 33.4529 12.9163 33.4046 12.5933 33.0816C12.5299 33.0212 12.4816 32.9487 12.4423 32.8703C11.5004 32.7948 8.35146 32.4838 5.45312 31.572L5.63729 30.8384C8.92811 31.8739 12.7261 32.1306 12.7654 32.1336C12.9647 32.1457 13.1186 32.3117 13.1186 32.511C13.2484 32.7072 14.2508 32.6982 15.1354 32.6861L16.017 32.68C18.0881 32.68 19.2112 32.2634 19.3501 31.4452C19.3802 31.2792 19.5161 31.1494 19.6852 31.1343C22.982 30.8022 25.9045 29.9206 28.3681 28.5137L28.7425 29.1688C26.2517 30.5908 23.3202 31.4966 20.0203 31.8558C19.4769 33.4348 16.8955 33.4348 16.0139 33.4348L15.1414 33.4409C14.9029 33.4409 14.6825 33.4469 14.4833 33.4469L14.4863 33.4529Z" fill="black"/>
<path d="M22.5961 35.2221C21.31 35.2221 20.6307 34.9806 20.0329 34.7693C19.4351 34.5579 18.8675 34.3557 17.6991 34.3557C16.5307 34.3557 15.9601 34.5579 15.3563 34.7723C14.7525 34.9836 14.0762 35.2221 12.7961 35.2221C11.516 35.2221 10.8337 34.9806 10.2329 34.7693C9.62908 34.5549 9.06148 34.3526 7.89309 34.3526C6.7247 34.3526 6.15711 34.5549 5.55329 34.7693C4.95249 34.9806 4.27319 35.2221 2.99309 35.2221L2.92969 34.4674C4.14337 34.4674 4.70492 34.2681 5.29666 34.0568C5.9035 33.8424 6.59186 33.5979 7.89007 33.5979C9.18829 33.5979 9.87362 33.8394 10.4805 34.0568C11.0752 34.2681 11.6368 34.4674 12.7901 34.4674C13.9434 34.4674 14.4989 34.2681 15.0937 34.0598C15.7035 33.8424 16.3919 33.6009 17.6931 33.6009C18.9943 33.6009 19.6736 33.8424 20.2774 34.0568C20.8722 34.2681 21.4338 34.4674 22.5871 34.4674C23.7404 34.4674 24.2989 34.2681 24.8906 34.0568C25.4975 33.8424 26.1828 33.5979 27.478 33.5979C28.7732 33.5979 29.4676 33.8394 30.0744 34.0568C30.6722 34.2681 31.2338 34.4674 32.3901 34.4674H32.5078L32.5139 35.2221H32.3931C31.104 35.2221 30.4247 34.9836 29.8239 34.7723C29.22 34.5579 28.6494 34.3557 27.478 34.3557C26.3066 34.3557 25.745 34.5579 25.1442 34.7723C24.5465 34.9836 23.8672 35.2252 22.5871 35.2252L22.5961 35.2221Z" fill="black"/>
<path d="M24.1621 34.3285L24.6512 34.9051C27.151 32.7827 28.9927 29.4466 29.3067 27.5144L28.4553 27.8555C27.9692 29.7032 26.2755 32.5382 24.1621 34.3315V34.3285Z" fill="black"/>
<path d="M7.4975 33.616C6.87255 32.9035 5.71925 31.3426 5.38413 30.0987L4.5569 29.7274C4.55388 29.7576 4.54482 29.7878 4.55086 29.821C4.78333 31.6566 6.84236 34.0145 6.92991 34.1141C7.00539 34.1987 7.10804 34.244 7.21371 34.244C7.30428 34.244 7.39183 34.2108 7.46429 34.1504C7.62129 34.0145 7.63638 33.773 7.4975 33.616Z" fill="black"/>
<path d="M12.4026 18.9703H12.0312V28.3778H12.4026V18.9703Z" fill="black"/>
<path d="M24.0697 28.5469C24.3682 28.5469 24.6101 28.3049 24.6101 28.0065C24.6101 27.708 24.3682 27.466 24.0697 27.466C23.7713 27.466 23.5293 27.708 23.5293 28.0065C23.5293 28.3049 23.7713 28.5469 24.0697 28.5469Z" fill="black"/>
<path d="M23.3956 27.6019C23.3956 27.2305 23.6975 26.9286 24.0689 26.9286C24.4402 26.9286 24.7421 27.2305 24.7421 27.6019H23.3926H23.3956Z" fill="black"/>
<path d="M24.7935 27.7468H23.3473C23.2447 27.7468 23.1602 27.6622 23.1602 27.5596C23.1602 27.4569 23.2447 27.3724 23.3473 27.3724H24.7935C24.8961 27.3724 24.9807 27.4569 24.9807 27.5596C24.9807 27.6622 24.8961 27.7468 24.7935 27.7468Z" fill="black"/>
<path d="M8.58896 29.5039C8.58896 29.1326 8.89087 28.8307 9.26222 28.8307C9.63357 28.8307 9.93548 29.1326 9.93548 29.5039H8.58594H8.58896Z" fill="black"/>
<path d="M9.98685 29.6489H8.5407C8.43805 29.6489 8.35352 29.5643 8.35352 29.4617C8.35352 29.359 8.43805 29.2745 8.5407 29.2745H9.98685C10.0895 29.2745 10.174 29.359 10.174 29.4617C10.174 29.5643 10.0895 29.6489 9.98685 29.6489Z" fill="black"/>
<path d="M14.422 31.9464C13.5827 31.9464 12.9004 31.1403 12.9004 30.15C12.9004 30.0413 12.9879 29.9538 13.0966 29.9538C13.2053 29.9538 13.2929 30.0413 13.2929 30.15C13.2929 30.9229 13.8001 31.1916 14.422 31.1916C15.044 31.1916 15.5512 30.9229 15.5512 30.15C15.5512 30.0413 15.6387 29.9538 15.7474 29.9538C15.8561 29.9538 15.9436 30.0413 15.9436 30.15C15.9436 31.1403 15.2613 31.9464 14.422 31.9464Z" fill="black"/>
<path d="M14.4584 31.1886C14.7569 31.1886 14.9988 30.9466 14.9988 30.6481C14.9988 30.3497 14.7569 30.1077 14.4584 30.1077C14.1599 30.1077 13.918 30.3497 13.918 30.6481C13.918 30.9466 14.1599 31.1886 14.4584 31.1886Z" fill="black"/>
<path d="M13.7843 30.2346C13.7843 29.8632 14.0862 29.5613 14.4575 29.5613C14.8289 29.5613 15.1308 29.8632 15.1308 30.2346H13.7812H13.7843Z" fill="black"/>
<path d="M15.1822 30.3794H13.736C13.6334 30.3794 13.5488 30.2949 13.5488 30.1923C13.5488 30.0896 13.6334 30.0051 13.736 30.0051H15.1822C15.2848 30.0051 15.3693 30.0896 15.3693 30.1923C15.3693 30.2949 15.2848 30.3794 15.1822 30.3794Z" fill="black"/>
<path d="M8.67155 41.7584C8.58702 41.7584 8.51758 41.689 8.51758 41.6045V41.1244C8.51758 41.0399 8.58702 40.9705 8.67155 40.9705C8.75609 40.9705 8.82553 41.0399 8.82553 41.1244V41.6045C8.82553 41.689 8.75609 41.7584 8.67155 41.7584Z" fill="black"/>
<path d="M9.69403 40.5146C9.69403 40.5146 9.68195 40.5267 9.69705 40.5236C9.69705 40.5236 10.1107 40.4753 10.3371 40.4753C10.4216 40.4753 10.5605 40.4874 10.5605 40.4874C10.5756 40.4874 10.5847 40.4784 10.5847 40.4633V39.9893C10.5847 39.9893 10.5756 39.9711 10.5635 39.9772L9.69403 40.5116V40.5146Z" fill="black"/>
<path d="M11.4947 42.2204C11.4947 42.2204 11.5159 42.2204 11.5159 42.2083V41.6015C11.5159 41.6015 11.5038 41.5773 11.4917 41.5803L10.6796 41.7011C10.6796 41.7011 10.6645 41.7102 10.6766 41.7162L11.4978 42.2204H11.4947Z" fill="black"/>
<path d="M13.0822 40.5448C13.0822 40.5448 13.052 40.5659 13.0399 40.572L12.4301 40.9222C12.4301 40.9222 12.3999 40.9313 12.3908 40.9282H12.3848C12.4572 40.9584 12.5327 40.9856 12.6052 41.0248C12.6354 41.0399 12.6565 41.0731 12.6565 41.1064C12.6565 41.1396 12.6384 41.1728 12.6082 41.1879C12.5418 41.2241 12.4723 41.2483 12.4059 41.2784C12.4059 41.2784 12.418 41.2845 12.4301 41.2905L13.3569 41.8551C13.3569 41.8551 13.378 41.8551 13.378 41.843V40.3637C13.378 40.3637 13.369 40.3455 13.3569 40.3516L13.0822 40.5388V40.5448Z" fill="black"/>
<path d="M12.3834 40.9282C11.8067 40.6595 11.2059 40.5116 10.584 40.4784V40.5116C11.215 40.5478 11.8399 40.6837 12.3834 40.9282Z" fill="black"/>
<path d="M11.5156 41.6106C11.8175 41.5351 12.1134 41.4204 12.4032 41.2845C12.1255 41.4113 11.8266 41.5019 11.5156 41.5713V41.6106Z" fill="black"/>
<path d="M9.67358 40.5146C9.49847 40.5388 9.32639 40.5689 9.1543 40.6142C9.30827 40.584 9.46526 40.5599 9.62528 40.5448C9.64037 40.5357 9.65849 40.5237 9.67358 40.5176V40.5146Z" fill="black"/>
<path d="M9.15625 41.6105C9.53968 41.7071 9.93518 41.7585 10.3367 41.7585C10.4424 41.7585 10.5481 41.7464 10.6537 41.7403C10.6356 41.7313 10.6175 41.7192 10.5994 41.7102C10.1073 41.7373 9.61817 41.7011 9.15927 41.6135L9.15625 41.6105Z" fill="black"/>
<path d="M12.653 41.1094C12.653 41.0762 12.6349 41.043 12.6016 41.0279C12.5292 40.9886 12.4537 40.9614 12.3812 40.9282C11.8378 40.6837 11.2129 40.5478 10.5819 40.5116V40.4784C10.5003 40.4754 10.4158 40.4633 10.3343 40.4633C10.1109 40.4633 9.89049 40.4814 9.67009 40.5116C9.655 40.5206 9.63688 40.5327 9.62179 40.5388C9.46178 40.5569 9.30478 40.581 9.15081 40.6082C8.77946 40.7018 8.41717 40.8407 8.06695 41.0248C8.03676 41.0399 8.01562 41.0731 8.01562 41.1064C8.01562 41.1396 8.03374 41.1728 8.06393 41.1879C8.41415 41.372 8.77946 41.5109 9.15081 41.6045C9.60971 41.6921 10.1018 41.7313 10.5909 41.7011C10.609 41.7102 10.6271 41.7222 10.6453 41.7313C10.9381 41.7132 11.2249 41.6739 11.5087 41.6045V41.5653C11.8167 41.4958 12.1186 41.4052 12.3963 41.2784C12.4628 41.2482 12.5322 41.2211 12.5986 41.1879C12.6288 41.1728 12.6469 41.1396 12.6469 41.1064L12.653 41.1094Z" fill="black"/>
<path d="M15.6794 41.7584C15.5948 41.7584 15.5254 41.689 15.5254 41.6045V41.1244C15.5254 41.0399 15.5948 40.9705 15.6794 40.9705C15.7639 40.9705 15.8333 41.0399 15.8333 41.1244V41.6045C15.8333 41.689 15.7639 41.7584 15.6794 41.7584Z" fill="black"/>
<path d="M16.6999 40.5146C16.6999 40.5146 16.6878 40.5267 16.7029 40.5236C16.7029 40.5236 17.1165 40.4753 17.343 40.4753C17.4275 40.4753 17.5664 40.4874 17.5664 40.4874C17.5815 40.4874 17.5905 40.4784 17.5905 40.4633V39.9893C17.5905 39.9893 17.5815 39.9711 17.5694 39.9772L16.6999 40.5116V40.5146Z" fill="black"/>
<path d="M18.5006 42.2204C18.5006 42.2204 18.5217 42.2204 18.5217 42.2083V41.6015C18.5217 41.6015 18.5097 41.5773 18.4976 41.5803L17.6854 41.7011C17.6854 41.7011 17.6703 41.7102 17.6824 41.7162L18.5036 42.2204H18.5006Z" fill="black"/>
<path d="M20.0861 40.5448C20.0861 40.5448 20.0559 40.5659 20.0438 40.572L19.434 40.9222C19.434 40.9222 19.4038 40.9313 19.3947 40.9282H19.3887C19.4611 40.9584 19.5366 40.9856 19.6091 41.0248C19.6393 41.0399 19.6604 41.0731 19.6604 41.1064C19.6604 41.1396 19.6423 41.1728 19.6121 41.1879C19.5457 41.2241 19.4762 41.2483 19.4098 41.2784C19.4098 41.2784 19.4219 41.2845 19.434 41.2905L20.3608 41.8551C20.3608 41.8551 20.382 41.8551 20.382 41.843V40.3637C20.382 40.3637 20.3729 40.3455 20.3608 40.3516L20.0861 40.5388V40.5448Z" fill="black"/>
<path d="M19.3892 40.9282C18.8126 40.6595 18.2118 40.5116 17.5898 40.4784V40.5116C18.2208 40.5478 18.8458 40.6837 19.3892 40.9282Z" fill="black"/>
<path d="M18.5234 41.6106C18.8253 41.5351 19.1212 41.4204 19.4111 41.2845C19.1333 41.4113 18.8344 41.5019 18.5234 41.5713V41.6106Z" fill="black"/>
<path d="M16.6775 40.5146C16.5024 40.5388 16.3303 40.5689 16.1582 40.6142C16.3122 40.584 16.4692 40.5599 16.6292 40.5448C16.6443 40.5357 16.6624 40.5237 16.6775 40.5176V40.5146Z" fill="black"/>
<path d="M16.1621 41.6105C16.5455 41.7071 16.941 41.7585 17.3426 41.7585C17.4482 41.7585 17.5539 41.7464 17.6596 41.7403C17.6415 41.7313 17.6234 41.7192 17.6052 41.7102C17.1131 41.7373 16.624 41.7011 16.1651 41.6135L16.1621 41.6105Z" fill="black"/>
<path d="M19.6608 41.1094C19.6608 41.0762 19.6427 41.043 19.6095 41.0279C19.537 40.9886 19.4615 40.9614 19.3891 40.9282C18.8456 40.6837 18.2207 40.5478 17.5897 40.5116V40.4784C17.5082 40.4754 17.4236 40.4633 17.3421 40.4633C17.1187 40.4633 16.8983 40.4814 16.6779 40.5116C16.6628 40.5206 16.6447 40.5327 16.6296 40.5388C16.4696 40.5569 16.3126 40.581 16.1586 40.6082C15.7873 40.7018 15.425 40.8407 15.0748 41.0248C15.0446 41.0399 15.0234 41.0731 15.0234 41.1064C15.0234 41.1396 15.0416 41.1728 15.0717 41.1879C15.422 41.372 15.7873 41.5109 16.1586 41.6045C16.6175 41.6921 17.1096 41.7313 17.5987 41.7011C17.6168 41.7102 17.635 41.7222 17.6531 41.7313C17.9459 41.7132 18.2327 41.6739 18.5165 41.6045V41.5653C18.8245 41.4958 19.1264 41.4052 19.4042 41.2784C19.4706 41.2482 19.54 41.2211 19.6064 41.1879C19.6366 41.1728 19.6547 41.1396 19.6547 41.1064L19.6608 41.1094Z" fill="black"/>
<path d="M22.6872 41.7584C22.6026 41.7584 22.5332 41.689 22.5332 41.6045V41.1244C22.5332 41.0399 22.6026 40.9705 22.6872 40.9705C22.7717 40.9705 22.8412 41.0399 22.8412 41.1244V41.6045C22.8412 41.689 22.7717 41.7584 22.6872 41.7584Z" fill="black"/>
<path d="M23.7057 40.5146C23.7057 40.5146 23.6937 40.5267 23.7088 40.5236C23.7088 40.5236 24.1224 40.4753 24.3488 40.4753C24.4333 40.4753 24.5722 40.4874 24.5722 40.4874C24.5873 40.4874 24.5964 40.4784 24.5964 40.4633V39.9893C24.5964 39.9893 24.5873 39.9711 24.5752 39.9772L23.7057 40.5116V40.5146Z" fill="black"/>
<path d="M25.5065 42.2204C25.5065 42.2204 25.5276 42.2204 25.5276 42.2083V41.6015C25.5276 41.6015 25.5155 41.5773 25.5034 41.5803L24.6913 41.7011C24.6913 41.7011 24.6762 41.7102 24.6883 41.7162L25.5095 42.2204H25.5065Z" fill="black"/>
<path d="M27.0939 40.5448C27.0939 40.5448 27.0637 40.5659 27.0516 40.572L26.4418 40.9222C26.4418 40.9222 26.4116 40.9313 26.4025 40.9282H26.3965C26.4689 40.9584 26.5444 40.9856 26.6169 41.0248C26.6471 41.0399 26.6682 41.0731 26.6682 41.1064C26.6682 41.1396 26.6501 41.1728 26.6199 41.1879C26.5535 41.2241 26.484 41.2483 26.4176 41.2784C26.4176 41.2784 26.4297 41.2845 26.4418 41.2905L27.3686 41.8551C27.3686 41.8551 27.3898 41.8551 27.3898 41.843V40.3637C27.3898 40.3637 27.3807 40.3455 27.3686 40.3516L27.0939 40.5388V40.5448Z" fill="black"/>
<path d="M26.397 40.9282C25.8204 40.6595 25.2196 40.5116 24.5977 40.4784V40.5116C25.2286 40.5478 25.8536 40.6837 26.397 40.9282Z" fill="black"/>
<path d="M25.5273 41.6106C25.8293 41.5351 26.1251 41.4204 26.415 41.2845C26.1372 41.4113 25.8383 41.5019 25.5273 41.5713V41.6106Z" fill="black"/>
<path d="M23.6853 40.5146C23.5102 40.5388 23.3381 40.5689 23.166 40.6142C23.32 40.584 23.477 40.5599 23.637 40.5448C23.6521 40.5357 23.6702 40.5237 23.6853 40.5176V40.5146Z" fill="black"/>
<path d="M23.1699 41.6105C23.5533 41.7071 23.9489 41.7585 24.3504 41.7585C24.4561 41.7585 24.5617 41.7464 24.6674 41.7403C24.6493 41.7313 24.6312 41.7192 24.6131 41.7102C24.1209 41.7373 23.6318 41.7011 23.1729 41.6135L23.1699 41.6105Z" fill="black"/>
<path d="M26.6686 41.1094C26.6686 41.0762 26.6505 41.043 26.6173 41.0279C26.5448 40.9886 26.4693 40.9614 26.3969 40.9282C25.8534 40.6837 25.2285 40.5478 24.5975 40.5116V40.4784C24.516 40.4754 24.4314 40.4633 24.3499 40.4633C24.1265 40.4633 23.9061 40.4814 23.6857 40.5116C23.6706 40.5206 23.6525 40.5327 23.6374 40.5388C23.4774 40.5569 23.3204 40.581 23.1664 40.6082C22.7951 40.7018 22.4328 40.8407 22.0826 41.0248C22.0524 41.0399 22.0312 41.0731 22.0312 41.1064C22.0312 41.1396 22.0494 41.1728 22.0796 41.1879C22.4298 41.372 22.7951 41.5109 23.1664 41.6045C23.6253 41.6921 24.1174 41.7313 24.6065 41.7011C24.6247 41.7102 24.6428 41.7222 24.6609 41.7313C24.9537 41.7132 25.2406 41.6739 25.5244 41.6045V41.5653C25.8323 41.4958 26.1342 41.4052 26.412 41.2784C26.4784 41.2482 26.5478 41.2211 26.6142 41.1879C26.6444 41.1728 26.6626 41.1396 26.6626 41.1064L26.6686 41.1094Z" fill="black"/>
<path d="M25.1289 10.7493L24.8663 10.4685C24.6247 10.2089 24.3349 9.96432 24.0088 9.73486C23.6405 9.48428 23.3054 9.29106 22.9401 9.11897C22.6019 8.95895 22.2366 8.81102 21.8562 8.68422C21.7415 8.64497 21.6237 8.60874 21.503 8.57553C21.1407 8.46986 20.7633 8.37627 20.3708 8.30079C19.9934 8.23135 19.607 8.17399 19.2054 8.13474L18.8945 8.10757C18.5594 8.08341 18.2182 8.07134 17.871 8.07134H17.7261H17.5691C17.2219 8.07134 16.8807 8.08341 16.5456 8.10757L16.2346 8.13474C15.8361 8.17399 15.4467 8.22833 15.0693 8.30079C14.6768 8.37627 14.2994 8.46684 13.9371 8.57553C13.8163 8.61176 13.6986 8.64799 13.5839 8.68723C13.2004 8.81404 12.8351 8.96197 12.5 9.12199C12.1377 9.29407 11.8026 9.48428 11.5037 9.68656C11.1052 9.96432 10.8154 10.2119 10.5738 10.4715L10.3112 10.7523L6.98714 7.42827C6.80599 7.62451 6.63692 7.82679 6.48295 8.02907L6.2233 8.36419L3.99219 6.13307L4.20654 5.87343C4.46619 5.55643 4.74394 5.2515 5.0368 4.95261C5.32361 4.66277 5.62854 4.38501 5.94857 4.11631L6.21123 3.89592L7.06261 4.74429C7.31924 4.54503 7.58492 4.34878 7.85966 4.16462L7.26188 3.12907L7.56077 2.93584C7.90193 2.71847 8.25818 2.51015 8.62349 2.31391C8.98276 2.12069 9.35109 1.94256 9.72848 1.77047L10.0364 1.63461L11.6184 4.36992L11.232 4.53597C10.9874 4.63862 10.7489 4.74731 10.5165 4.86203L11.3346 6.27799C11.6003 6.15421 11.872 6.03646 12.1558 5.92476C12.4698 5.80399 12.7929 5.68927 13.125 5.58964C13.3907 5.50812 13.6624 5.43566 13.9371 5.36924L13.5114 3.77817C13.2457 3.84459 12.9831 3.91705 12.7234 3.99857L12.3551 4.11028L11.543 1.07608L11.8871 0.970409C12.2736 0.852664 12.6691 0.746995 13.0706 0.653403C13.4631 0.559811 13.8677 0.478295 14.2722 0.408856L14.6074 0.351493L14.9213 1.5229C15.3289 1.46252 15.7425 1.41724 16.1562 1.38403V0.170347L16.5064 0.149213C17.3064 0.100907 18.1367 0.100907 18.9458 0.149213L19.296 0.170347V1.37799C19.7066 1.4112 20.1202 1.45648 20.5278 1.51687L20.8418 0.345455L21.1769 0.402818C21.5845 0.472257 21.986 0.553773 22.3815 0.647365C22.7831 0.740957 23.1786 0.849645 23.565 0.964371L23.9092 1.07004L23.0971 4.10424L22.7287 3.99253C22.4721 3.91403 22.2095 3.84158 21.9408 3.77214L21.5151 5.3632C21.7898 5.42962 22.0615 5.5051 22.3272 5.5836C22.6623 5.68625 22.9854 5.79795 23.2993 5.91872C23.5801 6.02741 23.8549 6.14515 24.1175 6.27195L24.9357 4.85599C24.7032 4.74127 24.4647 4.63258 24.2202 4.52993L23.8337 4.36388L25.4157 1.62857L25.7237 1.76443C26.1011 1.9335 26.4724 2.11465 26.8287 2.30787C27.194 2.50411 27.5502 2.71243 27.8914 2.92981L28.1903 3.12303L27.5925 4.15858C27.8673 4.34275 28.1329 4.53899 28.3896 4.73825L29.2409 3.88988L29.5036 4.11028C29.8206 4.37898 30.1255 4.65673 30.4124 4.94657C30.7052 5.24244 30.983 5.55039 31.2426 5.86739L31.457 6.12704L29.2258 8.35815L28.9662 8.02303C28.8092 7.82075 28.6401 7.61847 28.462 7.42223L25.138 10.7463L25.1289 10.7493ZM6.98412 6.36555L10.3081 9.68656C10.5195 9.49032 10.755 9.30011 11.0086 9.12199L11.0901 9.06764C11.4192 8.84423 11.7875 8.63591 12.183 8.44571C12.5483 8.2706 12.9408 8.11361 13.3514 7.97775C13.4752 7.93548 13.602 7.89623 13.7288 7.86C14.1152 7.74528 14.5168 7.64866 14.9334 7.57017C15.3319 7.49469 15.7425 7.43431 16.1652 7.39506L16.4913 7.36789C16.8445 7.34072 17.2038 7.32864 17.5721 7.32864H17.7291H17.874C18.2393 7.32864 18.5986 7.34373 18.9549 7.36789L19.2809 7.39506C19.7036 7.43733 20.1142 7.49469 20.5127 7.57017C20.9294 7.64866 21.3309 7.74528 21.7173 7.86C21.8441 7.89623 21.9709 7.9385 22.0947 7.97775C22.5053 8.11361 22.8978 8.27362 23.2631 8.44571C23.6616 8.63591 24.03 8.84423 24.356 9.06764L24.4375 9.125C24.6912 9.30313 24.9266 9.49032 25.138 9.68656L28.462 6.36555L28.7247 6.63123C28.9209 6.83049 29.1081 7.03277 29.2832 7.24109L30.4425 6.08175C30.2614 5.87343 30.0742 5.67115 29.878 5.47189C29.6847 5.27867 29.4855 5.08846 29.2742 4.9043L28.4348 5.74361L28.1752 5.52925C27.7737 5.19715 27.3419 4.88317 26.8891 4.59333L26.5902 4.40011L27.1819 3.3706C26.9494 3.23172 26.714 3.09586 26.4724 2.96604C26.2279 2.83319 25.9773 2.70941 25.7207 2.58865L24.8965 4.01668C25.147 4.13141 25.3916 4.24915 25.6301 4.37596L25.9743 4.5571L24.4164 7.25618L24.1024 7.09617C23.7613 6.92408 23.405 6.76407 23.0306 6.61915C22.7348 6.5014 22.4268 6.39876 22.1098 6.30214C21.7445 6.19044 21.3641 6.09081 20.9777 6.00929L20.5942 5.92778L21.4094 2.88754L21.7596 2.96905C22.0374 3.03246 22.3091 3.1019 22.5778 3.17737L23.0065 1.58329C22.7469 1.51083 22.4812 1.44139 22.2155 1.37799C21.9438 1.31459 21.669 1.25722 21.3913 1.20288L21.0803 2.36222L20.7482 2.30787C20.1414 2.20824 19.5225 2.1388 18.9066 2.10257L18.5563 2.08144V0.879836C18.0069 0.858702 17.4453 0.858702 16.8989 0.879836V2.08144L16.5486 2.10257C15.9327 2.1388 15.3108 2.20824 14.707 2.30787L14.3749 2.36222L14.0639 1.20288C13.7862 1.2542 13.5114 1.31459 13.2397 1.37799C12.971 1.44139 12.7083 1.50781 12.4457 1.58329L12.8744 3.17737C13.1431 3.1019 13.4178 3.03246 13.6926 2.96905L14.0428 2.88754L14.8579 5.92778L14.4745 6.00929C14.085 6.09383 13.7077 6.19044 13.3393 6.30214C13.0253 6.39876 12.7174 6.50442 12.4215 6.61915C12.0502 6.76407 11.6909 6.92408 11.3497 7.09617L11.0358 7.25618L9.4779 4.5571L9.82207 4.37596C10.0606 4.24915 10.3051 4.13141 10.5557 4.01668L9.7315 2.58865C9.47488 2.70941 9.22429 2.83621 8.97974 2.96604C8.73822 3.09586 8.50273 3.23172 8.27026 3.3706L8.86502 4.40011L8.56613 4.59333C8.11326 4.88317 7.68153 5.19715 7.27999 5.52925L7.02035 5.74361L6.18104 4.9043C5.97272 5.08846 5.77044 5.27867 5.57722 5.47189C5.38097 5.66813 5.19379 5.87343 5.01264 6.08175L6.17198 7.24109C6.34709 7.03277 6.53427 6.83049 6.73051 6.63123L6.99318 6.36555H6.98412Z" fill="black" stroke="black" stroke-width="0.030191" stroke-miterlimit="10"/>
<path d="M20.7968 28.4624C20.7636 28.4624 20.7334 28.4533 20.7032 28.4382C20.6127 28.3869 20.5825 28.2722 20.6338 28.1846L23.671 22.9223L18.445 24.3262C18.3453 24.3503 18.2427 24.293 18.2155 24.1933C18.1883 24.0937 18.2487 23.9911 18.3483 23.9639L24.0092 22.4423C24.0816 22.4242 24.1601 22.4483 24.2054 22.5087C24.2507 22.5691 24.2567 22.6506 24.2205 22.714L20.9568 28.3657C20.9236 28.4261 20.8602 28.4593 20.7968 28.4593V28.4624Z" fill="black"/>
<path d="M15.7459 14.4931L10.9824 32.283L11.3411 32.379L16.1046 14.5892L15.7459 14.4931Z" fill="black"/>
<path d="M19.9952 29.7213C19.6299 29.7213 19.334 30.0715 19.334 30.5003V31.7139H20.6564V30.5003C20.6564 30.0715 20.3575 29.7213 19.9952 29.7213Z" fill="black"/>
<path d="M14.4385 31.1856C14.0732 31.1856 13.7773 31.5358 13.7773 31.9645V33.1782H15.0997V31.9645C15.0997 31.5358 14.8008 31.1856 14.4385 31.1856Z" fill="black"/>
</g>
<defs>
<clipPath id="clip0_2919_12137">
<rect width="111.58" height="48.1094" fill="white" transform="translate(0.419922 0.0978928)"/>
</clipPath>
</defs>
</svg>
