<svg width="23" height="28" viewBox="0 0 23 28" fill="none" xmlns="http://www.w3.org/2000/svg">
<path fill-rule="evenodd" clip-rule="evenodd" d="M0.02616 0.0506768C-0.0555251 0.202257 0.0690143 4.27416 0.194302 5.54819C0.267566 6.29215 0.341672 6.95733 0.382094 7.23242C0.404831 7.3868 0.445439 7.68154 0.472387 7.88739C0.499428 8.09324 0.540598 8.36693 0.564084 8.49559C0.58757 8.62424 0.628646 8.87688 0.6555 9.057C0.703407 9.37887 0.748881 9.62234 0.84797 10.0862C0.875479 10.2149 0.916462 10.4182 0.939199 10.5382C0.961843 10.658 1.00161 10.8265 1.02753 10.9125C1.05335 10.9984 1.09452 11.174 1.11894 11.3026C2.18066 16.8954 5.88662 23.1022 10.3868 26.8246L11.0823 27.3999L11.9067 26.7081C15.601 23.6078 19.2527 18.1521 20.2142 14.2968C20.2334 14.2196 20.3341 13.8828 20.438 13.5483C20.6453 12.8801 20.9975 11.5771 21.0702 11.2091C21.0957 11.0804 21.1597 10.7857 21.2126 10.5541C21.2655 10.3225 21.3271 10.0278 21.3494 9.89911C21.3718 9.77046 21.4109 9.55993 21.4365 9.43127C21.5679 8.76928 21.6296 8.38658 21.7154 7.70026C21.7475 7.44295 21.791 7.12725 21.8119 6.99868C21.8329 6.87012 21.8756 6.47012 21.9066 6.10978C21.9378 5.74945 21.9802 5.34935 22.001 5.2207C22.0496 4.91885 22.1684 1.96218 22.1758 0.869774L22.1815 0.027659L11.1229 0.00389265C5.04058 -0.00920691 0.0470257 0.011846 0.02616 0.0506768ZM14.4457 5.45649C16.9066 6.03671 18.8129 8.49091 19.977 12.578L20.2667 13.5952L19.9506 14.5308C18.4282 19.0359 15.8595 22.9508 12.3575 26.1029C11.0035 27.3216 11.1736 27.3117 9.97088 26.2414C4.77372 21.6166 1.76541 15.638 0.574189 7.5672C0.516271 7.17497 0.561464 7.22596 1.444 8.54967C5.76424 15.0292 10.822 17.0447 13.2533 13.2559C14.6487 11.0813 13.2643 8.66934 11.1558 9.60194C9.97967 10.1223 10.108 11.7705 11.3247 11.7705C11.7778 11.7705 11.6463 12.0417 11.0546 12.3281C10.1022 12.7893 8.85292 11.9386 8.57428 10.6393C7.91677 7.57347 11.1856 4.68801 14.4457 5.45649Z" fill="black"/>
</svg>
