<svg width="128" height="44" viewBox="0 0 128 44" fill="none" xmlns="http://www.w3.org/2000/svg">
<path fill-rule="evenodd" clip-rule="evenodd" d="M0 16.9059C0 32.1797 0.0127734 33.0669 0.232848 33.13C3.94724 34.1942 12.0327 33.4678 15.4012 31.7674C21.3298 28.7747 23.9026 19.8569 20.7369 13.2731C17.8483 7.26536 7.81066 6.86845 6.81407 12.7224C6.74462 13.1302 6.6395 13.334 6.48303 13.3643C6.26854 13.4055 6.25364 12.9987 6.25364 7.07841V0.748535H3.12682H0V16.9059ZM51.0516 0.967813C51.0015 1.01798 50.9605 8.26394 50.9605 17.0701V33.0812H62.314H73.6675L74.7733 28.7901C75.3815 26.4301 75.9295 24.3635 75.9911 24.1977L76.1031 23.8964L80.1251 23.9316L84.1472 23.9668L84.234 24.366C84.3287 24.8015 86.3166 32.4699 86.4329 32.8483C86.5188 33.128 93.0062 33.2169 93.0062 32.9384C93.0062 32.8598 92.7022 31.7372 92.3306 30.4436C91.959 29.1499 91.5736 27.7922 91.4744 27.4263C91.375 27.0604 91.0752 26.0126 90.808 25.0978C90.5408 24.183 90.2899 23.3149 90.2502 23.1685C90.1748 22.8901 88.529 17.2245 87.7572 14.5864C86.9735 11.9076 86.3776 9.83334 85.2155 5.73814C84.5926 3.54271 84.0199 1.55099 83.9431 1.31203L83.8034 0.877466L80.0729 0.912858L76.3424 0.948119L73.6506 10.262C72.1702 15.3847 70.4512 21.3423 69.8307 23.5011L68.7026 27.4263L62.959 27.461L57.2155 27.4956L57.1815 14.2219L57.1476 0.948119L54.1452 0.91246C52.4938 0.892767 51.1018 0.917784 51.0516 0.967813ZM95.368 0.9581C95.313 1.01358 95.2682 8.26674 95.2682 17.0761V33.0932L103.019 33.05C112.661 32.9963 113.491 32.8304 115.826 30.4896C121.18 25.1226 117.803 16.8095 110.137 16.4855C108.462 16.4147 108.441 16.4099 108.441 16.0988C108.441 15.8366 108.508 15.7839 108.846 15.7839C118.02 15.7839 118.413 3.39515 109.306 1.26213C108.061 0.970471 95.6241 0.699306 95.368 0.9581ZM107.743 6.98833C110.223 8.09989 110.119 11.7218 107.574 12.8794C106.967 13.1555 106.674 13.1857 104.15 13.232L101.389 13.2827V9.93141V6.58012L104.216 6.62736C106.844 6.67126 107.093 6.69681 107.743 6.98833ZM41.5973 8.43785C41.5196 8.56359 38.3166 19.8155 37.0336 24.4698C35.7874 28.9905 36.1623 29.2738 33.4616 21.7714C32.9742 20.4176 31.6894 16.8849 30.6064 13.9211L28.6373 8.53232L25.3624 8.49679C21.6662 8.45661 21.8981 8.37504 22.3619 9.55193C22.5131 9.93526 23.3571 12.1978 24.2376 14.5797C25.1182 16.9618 26.8434 21.6051 28.0714 24.8982C29.2995 28.1914 30.478 31.3647 30.6902 31.9502L31.0762 33.0146L32.6359 33.0522C34.4384 33.0954 34.4063 33.0586 33.6965 34.2746C32.2062 36.8271 30.4114 37.729 25.7566 38.2641C22.9125 38.591 23.2855 38.1859 23.4235 40.7984C23.4873 42.0059 23.542 43.1884 23.5452 43.4263C23.552 43.9391 23.8345 43.9676 26.4116 43.7165C35.303 42.8499 38.3679 40.075 41.495 30.0599C42.6344 26.4109 44.9174 19.0484 46.0867 15.2517C46.7064 13.2392 47.428 10.9142 47.69 10.0848C47.952 9.25561 48.1663 8.52221 48.1663 8.45488C48.1663 8.30492 41.6899 8.28803 41.5973 8.43785ZM80.6074 10.3618C81.1066 12.1951 82.6279 18.1198 82.6279 18.2312C82.6279 18.2756 81.4902 18.3119 80.0998 18.3119C77.3471 18.3119 77.4628 18.3505 77.7074 17.5127C77.7822 17.2571 78.2938 15.2816 78.8445 13.1228C79.3953 10.9639 79.8711 9.12282 79.9021 9.03128C80.0418 8.6188 80.2287 8.97154 80.6074 10.3618ZM13.1449 14.8533C16.8424 16.4438 16.2265 24.2464 12.218 26.5955C10.9318 27.3492 8.32945 27.8817 6.88565 27.6864L6.25364 27.6009V22.9704C6.25364 17.5308 6.33054 17.0576 7.40005 15.9141C8.67553 14.5506 11.3102 14.064 13.1449 14.8533ZM108.198 19.1276C111.038 19.7368 112.372 21.9474 111.557 24.6941C110.923 26.8266 109.55 27.3967 104.882 27.4647L101.389 27.5157V23.2465V18.9772H104.443C106.211 18.9772 107.791 19.0406 108.198 19.1276ZM123.233 26.5972C121.481 27.1578 120.41 29.6932 121.196 31.418C122.812 34.9618 128 33.8964 128 30.0209C128 27.469 125.691 25.8106 123.233 26.5972Z" fill="white"/>
</svg>
