<svg width="244" height="47" viewBox="0 0 244 47" fill="none" xmlns="http://www.w3.org/2000/svg">
<path d="M54.556 36V10.8H58.372V36H54.556ZM63.3417 36V18.144H66.7257L67.0137 21.276C67.5657 20.172 68.3697 19.308 69.4257 18.684C70.5057 18.036 71.7417 17.712 73.1337 17.712C75.2937 17.712 76.9857 18.384 78.2097 19.728C79.4577 21.072 80.0817 23.076 80.0817 25.74V36H76.3017V26.136C76.3017 22.68 74.8857 20.952 72.0537 20.952C70.6377 20.952 69.4617 21.456 68.5257 22.464C67.6137 23.472 67.1577 24.912 67.1577 26.784V36H63.3417ZM84.5761 36V18.144H87.9601L88.2481 21.276C88.8001 20.172 89.6041 19.308 90.6601 18.684C91.7401 18.036 92.9761 17.712 94.3681 17.712C96.5281 17.712 98.2201 18.384 99.4441 19.728C100.692 21.072 101.316 23.076 101.316 25.74V36H97.5361V26.136C97.5361 22.68 96.1201 20.952 93.2881 20.952C91.8721 20.952 90.6961 21.456 89.7601 22.464C88.8481 23.472 88.3921 24.912 88.3921 26.784V36H84.5761ZM112.938 36.432C110.682 36.432 108.822 35.88 107.358 34.776C105.894 33.672 105.054 32.208 104.838 30.384H108.69C108.882 31.2 109.338 31.908 110.058 32.508C110.778 33.084 111.726 33.372 112.902 33.372C114.054 33.372 114.894 33.132 115.422 32.652C115.95 32.172 116.214 31.62 116.214 30.996C116.214 30.084 115.842 29.472 115.098 29.16C114.378 28.824 113.37 28.524 112.074 28.26C111.066 28.044 110.058 27.756 109.05 27.396C108.066 27.036 107.238 26.532 106.566 25.884C105.918 25.212 105.594 24.312 105.594 23.184C105.594 21.624 106.194 20.328 107.394 19.296C108.594 18.24 110.274 17.712 112.434 17.712C114.426 17.712 116.034 18.192 117.258 19.152C118.506 20.112 119.238 21.468 119.454 23.22H115.782C115.662 22.452 115.302 21.852 114.702 21.42C114.126 20.988 113.346 20.772 112.362 20.772C111.402 20.772 110.658 20.976 110.13 21.384C109.602 21.768 109.338 22.272 109.338 22.896C109.338 23.52 109.698 24.012 110.418 24.372C111.162 24.732 112.134 25.056 113.334 25.344C114.534 25.608 115.638 25.92 116.646 26.28C117.678 26.616 118.506 27.12 119.13 27.792C119.754 28.464 120.066 29.448 120.066 30.744C120.09 32.376 119.454 33.732 118.158 34.812C116.886 35.892 115.146 36.432 112.938 36.432ZM124.232 43.92V18.144H127.652L128.048 20.916C128.624 20.076 129.416 19.332 130.424 18.684C131.432 18.036 132.728 17.712 134.312 17.712C136.04 17.712 137.564 18.12 138.884 18.936C140.204 19.752 141.236 20.868 141.98 22.284C142.748 23.7 143.132 25.308 143.132 27.108C143.132 28.908 142.748 30.516 141.98 31.932C141.236 33.324 140.204 34.428 138.884 35.244C137.564 36.036 136.028 36.432 134.276 36.432C132.884 36.432 131.648 36.156 130.568 35.604C129.512 35.052 128.672 34.272 128.048 33.264V43.92H124.232ZM133.628 33.12C135.26 33.12 136.604 32.568 137.66 31.464C138.716 30.336 139.244 28.872 139.244 27.072C139.244 25.896 139.004 24.852 138.524 23.94C138.044 23.028 137.384 22.32 136.544 21.816C135.704 21.288 134.732 21.024 133.628 21.024C131.996 21.024 130.652 21.588 129.596 22.716C128.564 23.844 128.048 25.296 128.048 27.072C128.048 28.872 128.564 30.336 129.596 31.464C130.652 32.568 131.996 33.12 133.628 33.12ZM149.42 14.76C148.7 14.76 148.1 14.544 147.62 14.112C147.164 13.656 146.936 13.092 146.936 12.42C146.936 11.748 147.164 11.196 147.62 10.764C148.1 10.308 148.7 10.08 149.42 10.08C150.14 10.08 150.728 10.308 151.184 10.764C151.664 11.196 151.904 11.748 151.904 12.42C151.904 13.092 151.664 13.656 151.184 14.112C150.728 14.544 150.14 14.76 149.42 14.76ZM147.512 36V18.144H151.328V36H147.512ZM156.365 36V10.08H160.181V36H156.365ZM165.014 36V10.08H168.83V36H165.014ZM175.174 36.216C174.454 36.216 173.854 35.988 173.374 35.532C172.918 35.052 172.69 34.488 172.69 33.84C172.69 33.168 172.918 32.604 173.374 32.148C173.854 31.668 174.454 31.428 175.174 31.428C175.894 31.428 176.482 31.668 176.938 32.148C177.394 32.604 177.622 33.168 177.622 33.84C177.622 34.488 177.394 35.052 176.938 35.532C176.482 35.988 175.894 36.216 175.174 36.216ZM183.627 14.76C182.907 14.76 182.307 14.544 181.827 14.112C181.371 13.656 181.143 13.092 181.143 12.42C181.143 11.748 181.371 11.196 181.827 10.764C182.307 10.308 182.907 10.08 183.627 10.08C184.347 10.08 184.935 10.308 185.391 10.764C185.871 11.196 186.111 11.748 186.111 12.42C186.111 13.092 185.871 13.656 185.391 14.112C184.935 14.544 184.347 14.76 183.627 14.76ZM181.719 36V18.144H185.535V36H181.719ZM198.924 36.432C197.22 36.432 195.684 36.048 194.316 35.28C192.972 34.488 191.904 33.396 191.112 32.004C190.32 30.588 189.924 28.944 189.924 27.072C189.924 25.2 190.32 23.568 191.112 22.176C191.928 20.76 193.02 19.668 194.388 18.9C195.756 18.108 197.28 17.712 198.96 17.712C200.664 17.712 202.188 18.108 203.532 18.9C204.9 19.668 205.98 20.76 206.772 22.176C207.588 23.568 207.996 25.2 207.996 27.072C207.996 28.944 207.588 30.588 206.772 32.004C205.98 33.396 204.9 34.488 203.532 35.28C202.164 36.048 200.628 36.432 198.924 36.432ZM198.924 33.156C199.836 33.156 200.676 32.928 201.444 32.472C202.236 32.016 202.872 31.344 203.352 30.456C203.832 29.544 204.072 28.416 204.072 27.072C204.072 25.728 203.832 24.612 203.352 23.724C202.896 22.812 202.272 22.128 201.48 21.672C200.712 21.216 199.872 20.988 198.96 20.988C198.048 20.988 197.196 21.216 196.404 21.672C195.636 22.128 195.012 22.812 194.532 23.724C194.052 24.612 193.812 25.728 193.812 27.072C193.812 28.416 194.052 29.544 194.532 30.456C195.012 31.344 195.636 32.016 196.404 32.472C197.172 32.928 198.012 33.156 198.924 33.156Z" fill="#F2F2F2"/>
<path fill-rule="evenodd" clip-rule="evenodd" d="M33.1304 33.3878C32.2259 34.5022 31.9746 36.059 32.6922 37.302L33.955 39.4892C35.0297 41.3506 33.1293 43.5138 31.1449 42.6879C30.9676 42.6141 30.8006 42.5179 30.6477 42.4016L29.9807 41.8942C27.4774 39.9896 24.1572 39.74 21.0371 40.1395C20.2541 40.2397 19.4559 40.2914 18.6457 40.2914C8.34796 40.2914 0 31.9434 0 21.6457C0 11.348 8.34796 3 18.6457 3C28.9434 3 37.2914 11.348 37.2914 21.6457C37.2914 26.096 35.7322 30.1822 33.1304 33.3878ZM18.5 28C22.0899 28 25 25.0899 25 21.5C25 17.9101 22.0899 15 18.5 15C14.9101 15 12 17.9101 12 21.5C12 25.0899 14.9101 28 18.5 28Z" fill="#F2F2F2"/>
</svg>
