<svg width="238" height="33" viewBox="0 0 238 33" fill="none" xmlns="http://www.w3.org/2000/svg">
<path d="M36.1496 23V20.216H38.3576V8.984H36.1496V6.2H44.7896C45.8136 6.2 46.7016 6.376 47.4536 6.728C48.2216 7.064 48.8136 7.552 49.2296 8.192C49.6616 8.816 49.8776 9.568 49.8776 10.448V10.688C49.8776 11.456 49.7336 12.088 49.4456 12.584C49.1576 13.064 48.8136 13.44 48.4136 13.712C48.0296 13.968 47.6616 14.152 47.3096 14.264V14.696C47.6616 14.792 48.0456 14.976 48.4616 15.248C48.8776 15.504 49.2296 15.88 49.5176 16.376C49.8216 16.872 49.9736 17.52 49.9736 18.32V18.56C49.9736 19.488 49.7576 20.288 49.3256 20.96C48.8936 21.616 48.2936 22.12 47.5256 22.472C46.7736 22.824 45.8936 23 44.8856 23H36.1496ZM41.5256 20.12H44.5016C45.1896 20.12 45.7416 19.952 46.1576 19.616C46.5896 19.28 46.8056 18.8 46.8056 18.176V17.936C46.8056 17.312 46.5976 16.832 46.1816 16.496C45.7656 16.16 45.2056 15.992 44.5016 15.992H41.5256V20.12ZM41.5256 13.112H44.4536C45.1096 13.112 45.6456 12.944 46.0616 12.608C46.4936 12.272 46.7096 11.808 46.7096 11.216V10.976C46.7096 10.368 46.5016 9.904 46.0856 9.584C45.6696 9.248 45.1256 9.08 44.4536 9.08H41.5256V13.112ZM58.3271 23.336C57.1431 23.336 56.0951 23.088 55.1831 22.592C54.2871 22.08 53.5831 21.368 53.0711 20.456C52.5751 19.528 52.3271 18.44 52.3271 17.192V16.904C52.3271 15.656 52.5751 14.576 53.0711 13.664C53.5671 12.736 54.2631 12.024 55.1591 11.528C56.0551 11.016 57.0951 10.76 58.2791 10.76C59.4471 10.76 60.4631 11.024 61.3271 11.552C62.1911 12.064 62.8631 12.784 63.3431 13.712C63.8231 14.624 64.0631 15.688 64.0631 16.904V17.936H55.3991C55.4311 18.752 55.7351 19.416 56.3111 19.928C56.8871 20.44 57.5911 20.696 58.4231 20.696C59.2711 20.696 59.8951 20.512 60.2951 20.144C60.6951 19.776 60.9991 19.368 61.2071 18.92L63.6791 20.216C63.4551 20.632 63.1271 21.088 62.6951 21.584C62.2791 22.064 61.7191 22.48 61.0151 22.832C60.3111 23.168 59.4151 23.336 58.3271 23.336ZM55.4231 15.68H60.9911C60.9271 14.992 60.6471 14.44 60.1511 14.024C59.6711 13.608 59.0391 13.4 58.2551 13.4C57.4391 13.4 56.7911 13.608 56.3111 14.024C55.8311 14.44 55.5351 14.992 55.4231 15.68ZM71.1797 23C70.3957 23 69.7557 22.76 69.2597 22.28C68.7797 21.784 68.5397 21.128 68.5397 20.312V13.592H65.5637V11.096H68.5397V7.4H71.5637V11.096H74.8277V13.592H71.5637V19.784C71.5637 20.264 71.7877 20.504 72.2357 20.504H74.5397V23H71.1797ZM81.501 23.336C80.653 23.336 79.893 23.192 79.221 22.904C78.549 22.6 78.013 22.168 77.613 21.608C77.229 21.032 77.037 20.336 77.037 19.52C77.037 18.704 77.229 18.024 77.613 17.48C78.013 16.92 78.557 16.504 79.245 16.232C79.949 15.944 80.749 15.8 81.645 15.8H84.909V15.128C84.909 14.568 84.733 14.112 84.381 13.76C84.029 13.392 83.469 13.208 82.701 13.208C81.949 13.208 81.389 13.384 81.021 13.736C80.653 14.072 80.413 14.512 80.301 15.056L77.517 14.12C77.709 13.512 78.013 12.96 78.429 12.464C78.861 11.952 79.429 11.544 80.133 11.24C80.853 10.92 81.725 10.76 82.749 10.76C84.317 10.76 85.557 11.152 86.469 11.936C87.381 12.72 87.837 13.856 87.837 15.344V19.784C87.837 20.264 88.061 20.504 88.509 20.504H89.469V23H87.453C86.861 23 86.373 22.856 85.989 22.568C85.605 22.28 85.413 21.896 85.413 21.416V21.392H84.957C84.893 21.584 84.749 21.84 84.525 22.16C84.301 22.464 83.949 22.736 83.469 22.976C82.989 23.216 82.333 23.336 81.501 23.336ZM82.029 20.888C82.877 20.888 83.565 20.656 84.093 20.192C84.637 19.712 84.909 19.08 84.909 18.296V18.056H81.861C81.301 18.056 80.861 18.176 80.541 18.416C80.221 18.656 80.061 18.992 80.061 19.424C80.061 19.856 80.229 20.208 80.565 20.48C80.901 20.752 81.389 20.888 82.029 20.888Z" fill="#292929"/>
<line x1="101.5" y1="5.5" x2="101.5" y2="23.5" stroke="#292929" stroke-linecap="round"/>
<path d="M113.314 21V8.4H121.09V10.164H115.258V13.8H120.622V15.564H115.258V21H113.314ZM127.106 21.252C126.218 21.252 125.426 21.072 124.73 20.712C124.046 20.34 123.506 19.812 123.11 19.128C122.714 18.444 122.516 17.634 122.516 16.698V16.428C122.516 15.492 122.714 14.688 123.11 14.016C123.506 13.332 124.046 12.804 124.73 12.432C125.426 12.06 126.218 11.874 127.106 11.874C127.994 11.874 128.786 12.06 129.482 12.432C130.178 12.804 130.724 13.332 131.12 14.016C131.516 14.688 131.714 15.492 131.714 16.428V16.698C131.714 17.634 131.516 18.444 131.12 19.128C130.724 19.812 130.178 20.34 129.482 20.712C128.786 21.072 127.994 21.252 127.106 21.252ZM127.106 19.596C127.922 19.596 128.582 19.338 129.086 18.822C129.602 18.294 129.86 17.568 129.86 16.644V16.482C129.86 15.558 129.608 14.838 129.104 14.322C128.6 13.794 127.934 13.53 127.106 13.53C126.302 13.53 125.642 13.794 125.126 14.322C124.622 14.838 124.37 15.558 124.37 16.482V16.644C124.37 17.568 124.622 18.294 125.126 18.822C125.642 19.338 126.302 19.596 127.106 19.596ZM134.022 21V8.4H135.876V21H134.022ZM138.628 21V8.4H140.482V15.582H140.77L144.262 12.126H146.728L142.246 16.428L146.872 21H144.424L140.77 17.31H140.482V21H138.628ZM152.1 21.252C151.2 21.252 150.414 21.066 149.742 20.694C149.07 20.31 148.542 19.776 148.158 19.092C147.786 18.396 147.6 17.592 147.6 16.68V16.464C147.6 15.54 147.786 14.736 148.158 14.052C148.53 13.356 149.046 12.822 149.706 12.45C150.378 12.066 151.152 11.874 152.028 11.874C152.88 11.874 153.624 12.066 154.26 12.45C154.908 12.822 155.412 13.344 155.772 14.016C156.132 14.688 156.312 15.474 156.312 16.374V17.076H149.49C149.514 17.856 149.772 18.48 150.264 18.948C150.768 19.404 151.392 19.632 152.136 19.632C152.832 19.632 153.354 19.476 153.702 19.164C154.062 18.852 154.338 18.492 154.53 18.084L156.06 18.876C155.892 19.212 155.646 19.566 155.322 19.938C155.01 20.31 154.596 20.622 154.08 20.874C153.564 21.126 152.904 21.252 152.1 21.252ZM149.508 15.654H154.422C154.374 14.982 154.134 14.46 153.702 14.088C153.27 13.704 152.706 13.512 152.01 13.512C151.314 13.512 150.744 13.704 150.3 14.088C149.868 14.46 149.604 14.982 149.508 15.654ZM162.18 21.252C161.052 21.252 160.116 21 159.372 20.496C158.628 19.992 158.172 19.23 158.004 18.21L159.732 17.796C159.828 18.288 159.99 18.678 160.218 18.966C160.446 19.254 160.728 19.458 161.064 19.578C161.412 19.698 161.784 19.758 162.18 19.758C162.768 19.758 163.218 19.644 163.53 19.416C163.854 19.188 164.016 18.894 164.016 18.534C164.016 18.174 163.866 17.91 163.566 17.742C163.266 17.574 162.822 17.436 162.234 17.328L161.622 17.22C161.022 17.112 160.476 16.956 159.984 16.752C159.492 16.548 159.102 16.266 158.814 15.906C158.526 15.546 158.382 15.084 158.382 14.52C158.382 13.68 158.694 13.032 159.318 12.576C159.942 12.108 160.77 11.874 161.802 11.874C162.798 11.874 163.614 12.102 164.25 12.558C164.898 13.002 165.318 13.608 165.51 14.376L163.782 14.862C163.674 14.322 163.446 13.944 163.098 13.728C162.75 13.5 162.318 13.386 161.802 13.386C161.298 13.386 160.902 13.482 160.614 13.674C160.326 13.854 160.182 14.112 160.182 14.448C160.182 14.808 160.32 15.072 160.596 15.24C160.884 15.408 161.268 15.534 161.748 15.618L162.378 15.726C163.014 15.834 163.596 15.984 164.124 16.176C164.652 16.368 165.066 16.644 165.366 17.004C165.678 17.364 165.834 17.844 165.834 18.444C165.834 19.332 165.504 20.022 164.844 20.514C164.184 21.006 163.296 21.252 162.18 21.252ZM171.137 21C170.597 21 170.165 20.838 169.841 20.514C169.529 20.19 169.373 19.758 169.373 19.218V13.692H166.925V12.126H169.373V9.192H171.227V12.126H173.873V13.692H171.227V18.894C171.227 19.254 171.395 19.434 171.731 19.434H173.585V21H171.137ZM179.803 21.252C178.903 21.252 178.117 21.066 177.445 20.694C176.773 20.31 176.245 19.776 175.861 19.092C175.489 18.396 175.303 17.592 175.303 16.68V16.464C175.303 15.54 175.489 14.736 175.861 14.052C176.233 13.356 176.749 12.822 177.409 12.45C178.081 12.066 178.855 11.874 179.731 11.874C180.583 11.874 181.327 12.066 181.963 12.45C182.611 12.822 183.115 13.344 183.475 14.016C183.835 14.688 184.015 15.474 184.015 16.374V17.076H177.193C177.217 17.856 177.475 18.48 177.967 18.948C178.471 19.404 179.095 19.632 179.839 19.632C180.535 19.632 181.057 19.476 181.405 19.164C181.765 18.852 182.041 18.492 182.233 18.084L183.763 18.876C183.595 19.212 183.349 19.566 183.025 19.938C182.713 20.31 182.299 20.622 181.783 20.874C181.267 21.126 180.607 21.252 179.803 21.252ZM177.211 15.654H182.125C182.077 14.982 181.837 14.46 181.405 14.088C180.973 13.704 180.409 13.512 179.713 13.512C179.017 13.512 178.447 13.704 178.003 14.088C177.571 14.46 177.307 14.982 177.211 15.654ZM186.247 21V12.126H188.065V13.17H188.353C188.521 12.858 188.791 12.582 189.163 12.342C189.535 12.102 190.039 11.982 190.675 11.982C191.335 11.982 191.863 12.12 192.259 12.396C192.667 12.66 192.973 13.002 193.177 13.422H193.465C193.669 13.014 193.963 12.672 194.347 12.396C194.743 12.12 195.301 11.982 196.021 11.982C196.597 11.982 197.107 12.102 197.551 12.342C197.995 12.57 198.349 12.918 198.613 13.386C198.877 13.842 199.009 14.412 199.009 15.096V21H197.155V15.24C197.155 14.7 197.005 14.286 196.705 13.998C196.417 13.698 196.003 13.548 195.463 13.548C194.887 13.548 194.425 13.734 194.077 14.106C193.729 14.478 193.555 15.012 193.555 15.708V21H191.701V15.24C191.701 14.7 191.551 14.286 191.251 13.998C190.963 13.698 190.549 13.548 190.009 13.548C189.433 13.548 188.971 13.734 188.623 14.106C188.275 14.478 188.101 15.012 188.101 15.708V21H186.247ZM201.681 21V12.126H203.499V13.17H203.787C203.955 12.858 204.225 12.582 204.597 12.342C204.969 12.102 205.473 11.982 206.109 11.982C206.769 11.982 207.297 12.12 207.693 12.396C208.101 12.66 208.407 13.002 208.611 13.422H208.899C209.103 13.014 209.397 12.672 209.781 12.396C210.177 12.12 210.735 11.982 211.455 11.982C212.031 11.982 212.541 12.102 212.985 12.342C213.429 12.57 213.783 12.918 214.047 13.386C214.311 13.842 214.443 14.412 214.443 15.096V21H212.589V15.24C212.589 14.7 212.439 14.286 212.139 13.998C211.851 13.698 211.437 13.548 210.896 13.548C210.321 13.548 209.859 13.734 209.511 14.106C209.163 14.478 208.989 15.012 208.989 15.708V21H207.135V15.24C207.135 14.7 206.985 14.286 206.685 13.998C206.397 13.698 205.983 13.548 205.443 13.548C204.867 13.548 204.405 13.734 204.057 14.106C203.709 14.478 203.535 15.012 203.535 15.708V21H201.681ZM221.182 21.252C220.282 21.252 219.496 21.066 218.824 20.694C218.152 20.31 217.624 19.776 217.24 19.092C216.868 18.396 216.682 17.592 216.682 16.68V16.464C216.682 15.54 216.868 14.736 217.24 14.052C217.612 13.356 218.128 12.822 218.788 12.45C219.46 12.066 220.234 11.874 221.11 11.874C221.962 11.874 222.706 12.066 223.342 12.45C223.99 12.822 224.494 13.344 224.854 14.016C225.214 14.688 225.394 15.474 225.394 16.374V17.076H218.572C218.596 17.856 218.854 18.48 219.346 18.948C219.85 19.404 220.474 19.632 221.218 19.632C221.914 19.632 222.436 19.476 222.784 19.164C223.144 18.852 223.42 18.492 223.612 18.084L225.142 18.876C224.974 19.212 224.728 19.566 224.404 19.938C224.092 20.31 223.678 20.622 223.162 20.874C222.646 21.126 221.986 21.252 221.182 21.252ZM218.59 15.654H223.504C223.456 14.982 223.216 14.46 222.784 14.088C222.352 13.704 221.788 13.512 221.092 13.512C220.396 13.512 219.826 13.704 219.382 14.088C218.95 14.46 218.686 14.982 218.59 15.654ZM227.626 21V12.126H229.444V13.458H229.732C229.9 13.098 230.2 12.762 230.632 12.45C231.064 12.138 231.706 11.982 232.558 11.982C233.23 11.982 233.824 12.132 234.34 12.432C234.868 12.732 235.282 13.158 235.582 13.71C235.882 14.25 236.032 14.904 236.032 15.672V21H234.178V15.816C234.178 15.048 233.986 14.484 233.602 14.124C233.218 13.752 232.69 13.566 232.018 13.566C231.25 13.566 230.632 13.818 230.164 14.322C229.708 14.826 229.48 15.558 229.48 16.518V21H227.626Z" fill="#292929"/>
<path d="M12.7068 0H0V11.7811C0 22.2365 11.3994 31.3662 12.7068 32.176C14.0142 31.3662 25.4136 22.2365 25.4136 11.7811V0H12.7068ZM12.7583 19.5524C11.5569 19.5524 10.3824 19.1911 9.38353 18.5141C8.38465 17.8372 7.60623 16.875 7.14675 15.7493C6.68727 14.6236 6.56738 13.3851 6.80224 12.1903C7.0371 10.9955 7.61616 9.89825 8.46616 9.03725C9.31616 8.17626 10.3989 7.59025 11.5774 7.35337C12.7559 7.11649 13.9773 7.23938 15.0869 7.70649C16.1965 8.1736 17.1446 8.96394 17.8111 9.97752C18.4777 10.9911 18.8328 12.1824 18.8315 13.4007C18.8298 15.0328 18.1892 16.5975 17.0505 17.751C15.9117 18.9045 14.3679 19.5524 12.7583 19.5524Z" fill="#292929"/>
</svg>
