<svg width="244" height="47" viewBox="0 0 244 47" fill="none" xmlns="http://www.w3.org/2000/svg">
<path d="M54.556 36V10.8H58.372V36H54.556ZM68.3457 36L61.6497 18.144H65.6457L70.6137 32.364L75.5817 18.144H79.5417L72.8817 36H68.3457ZM90.1156 36.432C88.3636 36.432 86.8036 36.048 85.4356 35.28C84.0916 34.488 83.0356 33.396 82.2676 32.004C81.4996 30.612 81.1156 28.992 81.1156 27.144C81.1156 25.272 81.4876 23.628 82.2316 22.212C82.9996 20.796 84.0556 19.692 85.3996 18.9C86.7676 18.108 88.3516 17.712 90.1516 17.712C91.9036 17.712 93.4276 18.108 94.7236 18.9C96.0196 19.668 97.0276 20.7 97.7476 21.996C98.4676 23.292 98.8276 24.72 98.8276 26.28C98.8276 26.52 98.8156 26.784 98.7916 27.072C98.7916 27.336 98.7796 27.636 98.7556 27.972H84.8596C84.9796 29.7 85.5436 31.02 86.5516 31.932C87.5836 32.82 88.7716 33.264 90.1156 33.264C91.1956 33.264 92.0956 33.024 92.8156 32.544C93.5596 32.04 94.1116 31.368 94.4716 30.528H98.2876C97.8076 32.208 96.8476 33.612 95.4076 34.74C93.9916 35.868 92.2276 36.432 90.1156 36.432ZM90.1156 20.844C88.8436 20.844 87.7156 21.228 86.7316 21.996C85.7476 22.74 85.1476 23.868 84.9316 25.38H95.0116C94.9396 23.988 94.4476 22.884 93.5356 22.068C92.6236 21.252 91.4836 20.844 90.1156 20.844ZM102.787 36V18.144H106.207L106.531 21.528C107.155 20.352 108.019 19.428 109.123 18.756C110.251 18.06 111.607 17.712 113.191 17.712V21.708H112.147C111.091 21.708 110.143 21.888 109.303 22.248C108.487 22.584 107.827 23.172 107.323 24.012C106.843 24.828 106.603 25.968 106.603 27.432V36H102.787Z" fill="#F2F2F2"/>
<path fill-rule="evenodd" clip-rule="evenodd" d="M33.1315 33.3865C32.227 34.5011 31.9758 36.0579 32.6934 37.301L33.9568 39.4892C35.0315 41.3505 33.131 43.5138 31.1467 42.6879C30.9694 42.6141 30.8024 42.5179 30.6495 42.4016L29.9825 41.8941C27.4788 39.9893 24.1581 39.7398 21.0377 40.1394C20.2545 40.2397 19.4561 40.2914 18.6457 40.2914C8.34796 40.2914 0 31.9434 0 21.6457C0 11.348 8.34796 3 18.6457 3C28.9434 3 37.2914 11.348 37.2914 21.6457C37.2914 26.0954 35.7327 30.1811 33.1315 33.3865ZM18.5 28C22.0899 28 25 25.0899 25 21.5C25 17.9101 22.0899 15 18.5 15C14.9101 15 12 17.9101 12 21.5C12 25.0899 14.9101 28 18.5 28Z" fill="#F2F2F2"/>
</svg>
