<svg width="21" height="27" viewBox="0 0 21 27" fill="none" xmlns="http://www.w3.org/2000/svg">
<path d="M10.5 0.653839H0.508772V10.1807C0.508772 18.6355 9.47201 26.0182 10.5 26.6731C11.528 26.0182 20.4912 18.6355 20.4912 10.1807V0.653839H10.5ZM10.5405 16.465C9.59583 16.465 8.67236 16.1728 7.88696 15.6254C7.10155 15.0779 6.48948 14.2999 6.1282 13.3896C5.76692 12.4793 5.67264 11.4777 5.85731 10.5116C6.04198 9.54543 6.49729 8.6581 7.16564 7.96185C7.83399 7.2656 8.68534 6.79173 9.612 6.60017C10.5387 6.40862 11.499 6.50799 12.3715 6.88572C13.244 7.26345 13.9894 7.90256 14.5135 8.7222C15.0376 9.54184 15.3168 10.5052 15.3158 11.4903C15.3145 12.8102 14.8108 14.0755 13.9154 15.0083C13.02 15.9411 11.8061 16.465 10.5405 16.465Z" fill="#292929"/>
</svg>
