<svg width="21" height="27" viewBox="0 0 21 27" fill="none" xmlns="http://www.w3.org/2000/svg">
<path d="M10.5 0.326935H0.508772V9.85376C0.508772 18.3086 9.47201 25.6913 10.5 26.3462C11.528 25.6913 20.4912 18.3086 20.4912 9.85376V0.326935H10.5ZM10.5405 16.1381C9.59583 16.1381 8.67236 15.8459 7.88696 15.2985C7.10155 14.751 6.48948 13.9729 6.1282 13.0627C5.76692 12.1524 5.67264 11.1508 5.85731 10.1847C6.04198 9.21852 6.49729 8.33119 7.16564 7.63494C7.83399 6.9387 8.68534 6.46482 9.612 6.27327C10.5387 6.08171 11.499 6.18109 12.3715 6.55882C13.244 6.93655 13.9894 7.57566 14.5135 8.3953C15.0376 9.21494 15.3168 10.1783 15.3158 11.1634C15.3145 12.4833 14.8108 13.7486 13.9154 14.6814C13.02 15.6141 11.8061 16.1381 10.5405 16.1381Z" fill="#F2F2F2"/>
</svg>
