<svg width="64" height="18" viewBox="0 0 64 18" fill="none" xmlns="http://www.w3.org/2000/svg">
<path fill-rule="evenodd" clip-rule="evenodd" d="M3.41175 0C1.57603 0 0.0878906 1.48815 0.0878906 3.32386L0.0878906 14.1934C0.0878906 16.0291 1.57604 17.5172 3.41176 17.5172L60.6772 17.5172C62.5129 17.5172 64.001 16.0291 64.001 14.1934V3.32386C64.001 1.48814 62.5129 0 60.6771 0L3.41175 0ZM10.6907 13H9.70306V6.5707L7.08196 6.5707V5.59254L13.3118 5.59254V6.5707H10.6907V13ZM15.2038 13H14.2161V5.59254H17.5115C19.1544 5.59254 20.0091 6.40926 20.0091 7.77679C20.0091 8.64099 19.5628 9.32476 18.8315 9.58117C19.4203 9.73312 19.7147 10.0845 19.8192 10.8347C19.8839 11.2614 19.9029 11.5872 19.9188 11.8624C19.9427 12.2733 19.96 12.5714 20.1136 12.924V13H19.0974C18.9618 12.6964 18.9316 12.3094 18.8963 11.8568C18.8796 11.644 18.8619 11.4166 18.8315 11.1766C18.6986 10.1415 18.4801 9.96104 17.369 9.96104L15.2038 9.96104V13ZM15.2038 6.53271V9.06835L17.369 9.06835C18.4801 9.06835 18.974 8.59351 18.974 7.80528C18.974 7.00755 18.4611 6.53271 17.3215 6.53271H15.2038ZM22.2055 13H21.1133L24.4182 5.59254L25.6338 5.59254L28.9387 13H27.8465L27.0108 11.1101H23.0507L22.2055 13ZM25.026 6.62768L23.459 10.17H26.6024L25.026 6.62768ZM32.1894 13H31.0308L28.0488 5.59254H29.1125L31.6196 11.9269L34.1078 5.59254H35.1809L32.1894 13ZM41.7877 13L36.365 13V5.59254L41.7402 5.59254V6.53271L37.3527 6.53271V8.73596L41.4078 8.73596V9.64765L37.3527 9.64765V12.0598L41.7877 12.0598V13ZM44.4311 13H43.4434V5.59254H46.7388C48.3818 5.59254 49.2365 6.40926 49.2365 7.77679C49.2365 8.64099 48.7901 9.32476 48.0589 9.58117C48.6477 9.73312 48.9421 10.0845 49.0465 10.8347C49.1113 11.2614 49.1302 11.5872 49.1462 11.8624C49.1701 12.2733 49.1874 12.5714 49.3409 12.924V13H48.3248C48.1891 12.6964 48.1589 12.3094 48.1236 11.8568C48.107 11.644 48.0892 11.4166 48.0589 11.1766C47.9259 10.1415 47.7075 9.96104 46.5964 9.96104H44.4311V13ZM44.4311 6.53271V9.06835H46.5964C47.7075 9.06835 48.2013 8.59351 48.2013 7.80528C48.2013 7.00755 47.6885 6.53271 46.5489 6.53271H44.4311ZM56.6026 10.8347C56.6026 12.1643 55.539 13.1519 53.6396 13.1519C51.8067 13.1519 50.5722 12.1833 50.5722 10.5308H51.6643C51.7023 11.604 52.424 12.2403 53.6776 12.2403C54.8837 12.2403 55.558 11.7084 55.558 10.8347C55.558 9.88555 54.5984 9.77959 53.5393 9.66265C52.2356 9.51868 50.7811 9.35807 50.7811 7.58685C50.7811 6.33328 51.9017 5.44059 53.6016 5.44059C55.311 5.44059 56.5076 6.39976 56.5076 7.83377H55.444C55.368 6.90309 54.7033 6.35228 53.5731 6.35228C52.443 6.35228 51.8162 6.84611 51.8162 7.69132C51.8162 8.56478 52.7521 8.66578 53.7962 8.77845C55.1133 8.92058 56.6026 9.0813 56.6026 10.8347Z" fill="#F2F2F2"/>
</svg>
